<svg width="174" height="174" viewBox="0 0 174 174" fill="none" xmlns="http://www.w3.org/2000/svg">
<g clip-path="url(#clip0_713_2)">
<path d="M42.347 2.38212C42.3488 1.8993 42.5028 1.42932 42.7871 1.03898C43.0715 0.648641 43.4717 0.357795 43.9309 0.20783C44.4429 -0.00399392 45.0075 -0.0542072 45.5489 0.0639475C46.0902 0.182102 46.5824 0.462975 46.9595 0.868822L80.3603 38.0579H42.347V2.38212Z" fill="#1362FB"/>
<path d="M7.18832 43.4502H79.7855L42.4339 80.152L41.6681 80.9002C40.8304 81.8023 40.0787 82.7805 39.4228 83.8223C37.9459 86.1789 36.9904 88.8243 36.6206 91.5806C36.4956 92.4212 36.4316 93.27 36.4291 94.1199V130.457H7.17092C5.32718 130.513 3.53644 129.836 2.19193 128.574C0.847434 127.311 0.0590915 125.568 0 123.725V50.1818C0.0292354 49.2679 0.238402 48.3688 0.615569 47.5358C0.992735 46.7028 1.53049 45.9523 2.19809 45.3271C2.86569 44.7019 3.65004 44.2143 4.5063 43.8923C5.36256 43.5703 6.27395 43.42 7.18832 43.4502Z" fill="#1362FB"/>
<path d="M42.7126 91.0759C43.2452 88.8319 44.3415 86.7602 45.8978 85.0572L84.0328 47.6074V130.456C82.7968 131.779 47.969 170.933 45.7411 173.282C45.4931 173.584 45.1605 173.806 44.7857 173.918C44.411 174.031 44.0111 174.029 43.6374 173.914C43.2636 173.798 42.9329 173.573 42.6875 173.268C42.4422 172.964 42.2934 172.593 42.2601 172.203C42.2601 152.408 42.2601 118.176 42.2601 98.4856C42.1485 96.0067 42.3002 93.5228 42.7126 91.0759Z" fill="#1362FB"/>
<path d="M131.705 2.38214C131.702 1.89715 131.546 1.42556 131.258 1.03496C130.97 0.644355 130.566 0.3548 130.104 0.207842C129.591 -0.00150215 129.028 -0.0503844 128.487 0.0676488C127.946 0.185682 127.454 0.465072 127.075 0.868837L93.7094 38.058H131.74L131.705 2.38214Z" fill="#1362FB"/>
<path d="M166.812 43.4502H94.3363L131.705 80.152L132.454 80.9002C133.291 81.8023 134.043 82.7805 134.699 83.8223C136.188 86.1746 137.15 88.821 137.519 91.5806C137.635 92.4223 137.699 93.27 137.71 94.1199V130.457H166.812C167.726 130.487 168.638 130.337 169.493 130.014C170.35 129.693 171.134 129.205 171.802 128.58C172.469 127.955 173.007 127.204 173.385 126.371C173.761 125.538 173.971 124.639 174 123.725V50.1818C173.971 49.2679 173.761 48.3688 173.385 47.5358C173.007 46.7028 172.469 45.9523 171.802 45.3271C171.134 44.7019 170.35 44.2143 169.493 43.8923C168.638 43.5703 167.726 43.42 166.812 43.4502Z" fill="#1362FB"/>
<path d="M131.322 91.0759C130.79 88.8319 129.694 86.7602 128.137 85.0572L90.02 47.6074V130.456C91.238 131.779 126.083 170.933 128.311 173.282C128.563 173.576 128.896 173.79 129.268 173.898C129.641 174.005 130.037 174.002 130.407 173.887C130.777 173.772 131.106 173.551 131.352 173.252C131.598 172.953 131.751 172.588 131.793 172.203C131.793 152.408 131.793 118.176 131.793 98.4856C131.898 96.0061 131.74 93.5223 131.322 91.0759Z" fill="#1362FB"/>
</g>
<defs>
<clipPath id="clip0_713_2">
<rect width="174" height="174" fill="white"/>
</clipPath>
</defs>
</svg>
