<svg width="154" height="155" viewBox="0 0 154 155" fill="none" xmlns="http://www.w3.org/2000/svg">
<path d="M37.4795 2.1083C37.481 1.68098 37.6173 1.26502 37.869 0.919544C38.1206 0.574068 38.4748 0.316654 38.8813 0.183926C39.3344 -0.0035495 39.8341 -0.0479912 40.3133 0.0565823C40.7924 0.161156 41.228 0.409745 41.5617 0.768944L71.1232 33.6835H37.4795V2.1083Z" fill="#1362FB"/>
<path d="M6.36209 38.4559H70.6148L37.5564 70.9393L36.8787 71.6014C36.1373 72.3999 35.472 73.2657 34.8915 74.1877C33.5843 76.2735 32.7387 78.6146 32.4113 81.0539C32.3007 81.798 32.2441 82.5492 32.2419 83.3015V115.462H6.3467C4.71486 115.511 3.12995 114.912 1.93999 113.795C0.750026 112.678 0.0522993 111.135 0 109.504V44.4138C0.025875 43.605 0.210999 42.8092 0.544813 42.0719C0.878626 41.3347 1.35458 40.6704 1.94544 40.1171C2.5363 39.5638 3.23049 39.1322 3.98833 38.8472C4.74618 38.5622 5.5528 38.4292 6.36209 38.4559Z" fill="#1362FB"/>
<path d="M37.803 80.6074C38.2744 78.6212 39.2446 76.788 40.622 75.2807L74.3736 42.1353V115.462C73.2799 116.632 42.4552 151.286 40.4834 153.364C40.2639 153.632 39.9695 153.828 39.6378 153.928C39.3061 154.027 38.9523 154.026 38.6215 153.923C38.2907 153.821 37.998 153.622 37.7808 153.352C37.5637 153.083 37.432 152.755 37.4025 152.41C37.4025 134.89 37.4025 104.593 37.4025 87.1657C37.3038 84.9716 37.438 82.7732 37.803 80.6074Z" fill="#1362FB"/>
<path d="M116.567 2.10832C116.564 1.67908 116.426 1.2617 116.171 0.915989C115.916 0.570283 115.559 0.314009 115.15 0.183942C114.696 -0.00133921 114.197 -0.0446028 113.718 0.0598632C113.24 0.164329 112.804 0.411606 112.469 0.768959L82.9385 33.6835H116.598L116.567 2.10832Z" fill="#1362FB"/>
<path d="M147.638 38.4559H83.493L116.567 70.9393L117.229 71.6014C117.971 72.3999 118.636 73.2657 119.216 74.1877C120.535 76.2695 121.386 78.6119 121.712 81.0539C121.815 81.7989 121.871 82.5495 121.881 83.3015V115.462H147.638C148.447 115.488 149.254 115.355 150.012 115.07C150.769 114.785 151.464 114.354 152.054 113.801C152.645 113.247 153.121 112.583 153.455 111.846C153.789 111.108 153.974 110.313 154 109.504V44.4138C153.974 43.605 153.789 42.8092 153.455 42.0719C153.121 41.3347 152.645 40.6704 152.054 40.1171C151.464 39.5638 150.769 39.1322 150.012 38.8472C149.254 38.5622 148.447 38.4292 147.638 38.4559Z" fill="#1362FB"/>
<path d="M116.228 80.6074C115.756 78.6212 114.786 76.788 113.409 75.2807L79.6727 42.1353V115.462C80.751 116.632 111.591 151.286 113.563 153.364C113.786 153.625 114.08 153.814 114.41 153.91C114.74 154.005 115.09 154.001 115.418 153.9C115.745 153.798 116.036 153.603 116.254 153.338C116.472 153.073 116.607 152.751 116.644 152.41C116.644 134.89 116.644 104.593 116.644 87.1657C116.737 84.971 116.598 82.7727 116.228 80.6074Z" fill="#1362FB"/>
</svg>
