<svg width="50" height="50" viewBox="0 0 50 50" fill="none" xmlns="http://www.w3.org/2000/svg">
<path d="M48.2737 15.1437C48.2513 14.2724 47.8874 13.4449 47.2603 12.8394C46.6332 12.2338 45.7932 11.8989 44.9214 11.9066H37.4618V2.93118C37.4642 2.50149 37.3336 2.08156 37.0879 1.72894C36.8423 1.37632 36.4936 1.10825 36.0896 0.96143C35.8271 0.861777 35.5488 0.810319 35.2681 0.809541C34.9621 0.807223 34.659 0.869913 34.3791 0.99347C34.0991 1.11703 33.8486 1.29864 33.6442 1.52625L25.0972 11.019L25.007 11.1187L24.5322 11.5934L24.0574 11.1187L23.9624 11.019L23.1124 10.0698L15.4344 1.52625C15.2305 1.29607 14.9797 1.11216 14.6987 0.986908C14.4178 0.861653 14.1133 0.797944 13.8058 0.800054C13.58 0.803536 13.356 0.840312 13.141 0.909212C13.088 0.920631 13.0357 0.934889 12.9843 0.951928C12.6269 1.08191 12.3118 1.3072 12.0732 1.60337C11.8347 1.89954 11.6818 2.25532 11.631 2.63216C11.6238 2.72853 11.6238 2.82532 11.631 2.92169V11.8971H4.14772C3.27453 11.8832 2.43149 12.2162 1.80382 12.8232C1.17614 13.4301 0.81516 14.2613 0.800171 15.1342V33.9157C0.815166 34.7843 1.17287 35.6119 1.7954 36.2182C2.41793 36.8245 3.25487 37.1604 4.12398 37.1527H11.5931C11.5931 40.5084 11.5931 43.8404 11.5931 46.299V46.4034C11.5931 46.4461 11.5931 46.4841 11.5931 46.5268C11.6388 46.9301 11.8086 47.3092 12.0791 47.6118C12.3496 47.9145 12.7073 48.1258 13.103 48.2166C13.2583 48.2559 13.4177 48.2767 13.5779 48.2783C13.8619 48.2783 14.1428 48.2193 14.4028 48.1049C14.6628 47.9905 14.896 47.8232 15.0878 47.6138C15.387 47.291 18.0128 44.3435 20.5484 41.4956L23.0697 38.6478C23.6775 37.9691 24.1761 37.4043 24.4942 37.053L28.4353 41.4767C30.9756 44.3245 33.6014 47.272 33.9053 47.5995C34.0968 47.8077 34.3295 47.9739 34.5886 48.0875C34.8477 48.201 35.1276 48.2595 35.4105 48.2593C35.9269 48.2671 36.4259 48.073 36.8011 47.7183C37.1763 47.3637 37.3981 46.8765 37.4191 46.3607V37.1622H44.9261C45.798 37.17 46.638 36.835 47.265 36.2295C47.8921 35.624 48.2561 34.7964 48.2784 33.9252L48.2737 15.1437ZM34.7648 2.54672C34.8281 2.476 34.9057 2.41954 34.9924 2.38108C35.0792 2.34262 35.1732 2.32304 35.2681 2.32364C35.3624 2.3236 35.4558 2.3413 35.5435 2.37585C35.6601 2.41519 35.7615 2.48977 35.8338 2.58925C35.9061 2.68874 35.9457 2.80822 35.9471 2.93118V11.9066H26.3603L34.7648 2.54672ZM13.1268 2.93118C13.1245 2.90275 13.1245 2.87418 13.1268 2.84575C13.1446 2.73955 13.1899 2.63986 13.2582 2.55659C13.3265 2.47332 13.4154 2.40939 13.5161 2.37111C13.6037 2.33612 13.6972 2.31838 13.7915 2.31889C13.8863 2.31888 13.9801 2.33873 14.0668 2.37715C14.1535 2.41557 14.2312 2.47172 14.2949 2.54197L22.6946 11.9019H13.1268V2.93118ZM11.5931 35.6481H4.14297C3.67147 35.6622 3.21364 35.4886 2.87001 35.1656C2.52638 34.8426 2.32501 34.3965 2.31013 33.9252V15.1437C2.32501 14.6724 2.52638 14.2262 2.87001 13.9032C3.21364 13.5802 3.67147 13.4067 4.14297 13.4207H22.6614L22.5189 13.5584L13.1363 22.7806L12.9416 22.9752C12.7272 23.2052 12.5349 23.4546 12.367 23.7204C11.989 24.323 11.7445 24.9995 11.65 25.7044C11.65 25.7329 11.65 25.7614 11.65 25.7898C11.6254 25.9755 11.6127 26.1626 11.612 26.3499L11.5931 35.6481ZM23.7725 35.6481C23.725 35.7003 23.4828 35.9661 23.1124 36.3838C20.9852 38.757 14.48 46.0759 14.0099 46.5886C13.9605 46.6425 13.9003 46.6856 13.8333 46.715C13.7662 46.7444 13.6938 46.7595 13.6206 46.7594C13.5088 46.7614 13.3999 46.724 13.3131 46.6537C13.2262 46.5833 13.167 46.4847 13.1458 46.375C13.1435 46.3529 13.1435 46.3306 13.1458 46.3085C13.1458 41.2536 13.1458 32.5107 13.1458 27.4843C13.1458 27.0951 13.122 26.535 13.1458 26.0604C13.156 25.8998 13.183 25.7407 13.2265 25.5857C13.3624 25.0112 13.6417 24.4805 14.0384 24.0432L23.1172 15.1247L23.7772 14.4792L23.7725 35.6481ZM35.9471 27.4843V46.3085C35.9471 46.4344 35.8971 46.5551 35.808 46.6441C35.719 46.7331 35.5982 46.7831 35.4723 46.7831C35.3991 46.7832 35.3266 46.7681 35.2596 46.7387C35.1925 46.7093 35.1324 46.6662 35.0829 46.6123C34.5321 46.0142 25.6338 36.0088 25.3204 35.6956V14.4839L35.0544 24.0479C35.4542 24.4838 35.7354 25.0149 35.8711 25.5905C35.9608 26.2175 35.9862 26.8521 35.9471 27.4843ZM44.9261 35.6481H37.4808V26.3642C37.4793 26.1482 37.4635 25.9325 37.4333 25.7186C37.3371 25.0134 37.091 24.3369 36.7116 23.7346C36.5439 23.47 36.3532 23.2207 36.1418 22.9894L35.9471 22.7949L26.5455 13.5584L26.4078 13.4207H44.9261C45.3981 13.4066 45.8564 13.58 46.2008 13.9029C46.5452 14.2258 46.7476 14.672 46.7637 15.1437V33.9252C46.7476 34.3969 46.5452 34.843 46.2008 35.1659C45.8564 35.4888 45.3981 35.6622 44.9261 35.6481Z" stroke="url(#paint0_linear_2_3785)" stroke-width="1.6"/>
<defs>
<linearGradient id="paint0_linear_2_3785" x1="2.0496" y1="1.63296" x2="46.1961" y2="46.1959" gradientUnits="userSpaceOnUse">
<stop stop-color="#367AFC"/>
<stop offset="0.377484" stop-color="#4665FC"/>
<stop offset="0.852006" stop-color="#8713FB"/>
</linearGradient>
</defs>
</svg>
