<svg width="28" height="28" viewBox="0 0 28 28" fill="none" xmlns="http://www.w3.org/2000/svg">
<path d="M13.9897 6.84589L19.809 1.14521C19.9635 0.975851 20.1754 0.975851 20.3214 1.03252C20.4016 1.06314 20.5887 1.16149 20.5887 1.3999V6.80456M13.9897 6.84589L20.1837 12.8201C20.442 13.097 20.6173 13.4287 20.7028 13.7813C20.797 14.1044 20.7518 14.6309 20.7631 14.9632C20.7637 18.1026 20.7612 23.5627 20.7631 26.7187C20.7455 27.0061 20.3797 27.0862 20.2006 26.8932C19.8493 26.5184 14.1895 20.2735 13.9897 20.0626M13.9897 6.84589V20.0626M13.9897 6.84589L8.19097 1.14521C8.03647 0.975851 7.82459 0.975851 7.67856 1.03252C7.59837 1.06314 7.41127 1.16149 7.41127 1.3999V7.17098M13.9897 6.84589L7.81633 12.8201C7.55804 13.097 7.3827 13.4287 7.29723 13.7813C7.20296 14.1044 7.24821 14.6309 7.2369 14.9632C7.23627 18.1026 7.23879 23.5627 7.2369 26.7187C7.2545 27.0061 7.62025 27.0862 7.79936 26.8932C8.15067 26.5184 13.7898 20.2735 13.9897 20.0626M13.6338 6.80456H25.7929C26.4571 6.80456 26.9974 7.45931 26.9974 8.03805L27 19.4942C27 20.0735 26.4597 20.545 25.7955 20.545H20.9055M14.3662 6.80456H2.20709C1.5429 6.80456 1.00259 7.45931 1.00259 8.03805L1 19.4942C1 20.0735 1.54031 20.545 2.2045 20.545H7.09447" stroke="url(#paint0_linear_29619_2)" stroke-width="2" stroke-miterlimit="2" stroke-linejoin="round"/>
<defs>
<linearGradient id="paint0_linear_29619_2" x1="1.68421" y1="1.45474" x2="25.8596" y2="25.8582" gradientUnits="userSpaceOnUse">
<stop stop-color="#367AFC"/>
<stop offset="0.377484" stop-color="#4665FC"/>
<stop offset="0.852006" stop-color="#8713FB"/>
</linearGradient>
</defs>
</svg>
