<svg xmlns="http://www.w3.org/2000/svg" width="598" height="220" fill="none" viewBox="0 0 598 220"><path fill="#699bfc" d="M329.981 70v1.7H327V70zm5.963 0v1.7h-2.981V70zm5.963 0v1.7h-2.981V70zm113.259 0v1.7h-2.981V70zm5.963 0v1.7h-2.982V70zm6.049 0v1.7h-3.068V70zm5.877 0v1.7h-2.982V70zM324.481 71.7V70H321.5v1.7zM128.304 70v1.7h-2.982V70zm5.963 0v1.7h-2.982V70zm5.962 0v1.7h-2.981V70zm5.963 0v1.7h-2.981V70zm5.963 0v1.7h-2.981V70zm83.482 0v1.7h-2.982V70zm5.963 0v1.7h-2.982V70zm5.962 0v1.7h-2.981V70zm5.963 0v1.7h-2.981V70zm5.963 0v1.7h-2.981V70zm5.963 0v1.7h-2.981V70zm6.049 0v1.7h-3.067V70zm5.877 0v1.7h-2.981V70z"/><path stroke="#1362fb" stroke-linecap="round" stroke-linejoin="round" stroke-width="1.7" d="M163.833 62.583H158c-.442 0-.866.167-1.179.464-.312.297-.488.7-.488 1.12v12.666c0 .42.176.823.488 1.12.313.297.737.464 1.179.464h10a1.7 1.7 0 0 0 1.178-.464c.313-.297.489-.7.489-1.12v-8.708z"/><path stroke="#1362fb" stroke-linecap="round" stroke-linejoin="round" stroke-width="1.7" d="M163.833 62.583v5.542h5.834"/><path fill="#1362fb" d="M178.919 67.422q1.028 0 1.742.448.715.448 1.086 1.267.377.813.377 1.905 0 1.118-.377 1.937a2.9 2.9 0 0 1-1.092 1.267q-.716.45-1.742.449-1.021 0-1.742-.435a2.83 2.83 0 0 1-1.092-1.255q-.377-.819-.377-1.95 0-1.08.377-1.898.376-.819 1.098-1.274.722-.462 1.742-.462m0 1.293q-.721 0-1.079.566-.351.565-.351 1.774 0 1.222.351 1.787.351.56 1.073.56.721 0 1.072-.56.351-.565.351-1.8 0-1.203-.351-1.761-.35-.566-1.066-.566m5 5.785v-1.19h.969V68.8h-.969v-1.183h2.275l.319 1.579q.376-.877.949-1.32.572-.448 1.436-.448.331 0 .585.052.26.052.494.136l-.513 1.444a4 4 0 0 0-.384-.079 2.3 2.3 0 0 0-.409-.032q-.716 0-1.248.559-.526.552-.819 1.502v2.3h1.371v1.19zm4.609-4.199v-1.826l.234-.858h1.215l-.305 2.684zm7.112-5.616 1.716.182V74.5h-1.521l-.104-.812a2.5 2.5 0 0 1-.799.734 2.23 2.23 0 0 1-1.118.273q-.871 0-1.443-.455-.566-.455-.845-1.274-.273-.826-.273-1.917 0-1.054.325-1.873.324-.819.936-1.287.617-.467 1.462-.468.507 0 .923.176.416.175.741.52zm-1.202 4.017q-.65 0-1.027.566-.37.558-.371 1.787 0 .864.156 1.384.156.514.442.742t.676.227q.429 0 .754-.254a2.5 2.5 0 0 0 .572-.643v-3.133a1.9 1.9 0 0 0-.539-.494 1.23 1.23 0 0 0-.663-.182m6.468 2.88q.053.642.293 1.046.247.404.63.591.384.189.852.189.494 0 .929-.156.436-.157.858-.435l.715.981q-.48.403-1.15.65-.663.247-1.463.247-1.117 0-1.885-.461a2.94 2.94 0 0 1-1.15-1.281q-.39-.819-.39-1.885 0-1.027.383-1.852.384-.825 1.105-1.307.722-.488 1.742-.488.95.001 1.638.416.69.416 1.066 1.197.377.773.377 1.865 0 .175-.013.358a5 5 0 0 1-.019.325zm1.476-2.951q-.624 0-1.027.448-.396.443-.468 1.404h2.899q-.013-.87-.364-1.359-.345-.493-1.04-.493m4.922 5.869v-1.19h.968V68.8h-.968v-1.183h2.275l.318 1.579q.378-.877.949-1.32.573-.448 1.437-.448.331 0 .585.052.26.052.494.136l-.514 1.444a4 4 0 0 0-.383-.079 2.3 2.3 0 0 0-.41-.032q-.714 0-1.248.559-.527.552-.819 1.502v2.3h1.372v1.19zm4.608-4.199v-1.826l.234-.858h1.216l-.306 2.684z"/><path fill="#367afc" d="M227.853 69.685a1 1 0 0 1 0 1.63l-7.024 4.991a1 1 0 0 1-1.579-.815v-9.982a1 1 0 0 1 1.579-.815z"/><path stroke="#1362fb" stroke-linecap="round" stroke-linejoin="round" stroke-width="1.7" d="M354.667 62.583H348c-.442 0-.866.167-1.179.464-.312.297-.488.7-.488 1.12v12.666c0 .42.176.823.488 1.12.313.297.737.464 1.179.464h10a1.7 1.7 0 0 0 1.178-.464c.313-.297.489-.7.489-1.12v-9.5z"/><path stroke="#1362fb" stroke-linecap="round" stroke-linejoin="round" stroke-width="1.7" d="M354.667 62.583v4.75h5M356.333 71.292h-6.666M356.333 74.458h-6.666M351.333 68.125h-1.666"/><path fill="#1362fb" d="M367.972 71.582q.052.642.292 1.046.247.404.631.591.384.189.851.189.495 0 .93-.156.435-.157.858-.435l.715.981a3.8 3.8 0 0 1-1.151.65 4.2 4.2 0 0 1-1.462.247q-1.118 0-1.885-.461a2.95 2.95 0 0 1-1.151-1.281q-.39-.819-.39-1.885 0-1.027.384-1.852t1.105-1.307q.722-.488 1.742-.488.95.001 1.638.416a2.76 2.76 0 0 1 1.066 1.197q.377.773.377 1.865 0 .175-.013.358-.006.181-.02.325zm1.475-2.951q-.624 0-1.027.448-.396.443-.468 1.404h2.899q-.013-.87-.364-1.359-.344-.493-1.04-.493m4.708 3.002V70.27h5.486v1.364zm11.383-4.016v5.667h1.813V74.5h-5.544v-1.216h2.015v-4.452h-1.95v-1.215zm-1.112-3.472q.475 0 .767.293.3.293.299.728 0 .435-.299.734-.292.293-.767.293-.474 0-.773-.293a1 1 0 0 1-.299-.734q0-.435.299-.728t.773-.293m4.688 10.355v-6.883h1.495l.124.851q.441-.52.994-.78a2.7 2.7 0 0 1 1.19-.267q.929 0 1.417.54.487.533.487 1.502V74.5h-1.716v-4.368q0-.52-.065-.832-.065-.318-.247-.455-.182-.143-.526-.143-.28 0-.54.124a2 2 0 0 0-.481.331 4 4 0 0 0-.416.462V74.5zm13.769-6.883-2.366 6.883h-2.015l-2.379-6.883h1.846l1.566 5.511 1.599-5.511zm4.161-.196q1.027 0 1.742.449a2.83 2.83 0 0 1 1.085 1.267q.377.813.377 1.905 0 1.118-.377 1.937a2.87 2.87 0 0 1-1.092 1.267q-.714.45-1.742.449-1.02 0-1.742-.435a2.85 2.85 0 0 1-1.092-1.255q-.377-.819-.377-1.95 0-1.08.377-1.898.378-.819 1.099-1.274.722-.462 1.742-.462m0 1.294q-.722 0-1.079.566-.351.565-.351 1.774 0 1.222.351 1.787.35.56 1.072.56t1.073-.56q.351-.565.351-1.8 0-1.203-.351-1.761-.35-.566-1.066-.566m8.633-1.099v5.668h1.814V74.5h-5.545v-1.216h2.015v-4.452h-1.95v-1.215zm-1.111-3.47q.474 0 .767.292a.98.98 0 0 1 .299.728 1 1 0 0 1-.299.734q-.293.293-.767.293t-.774-.293a1 1 0 0 1-.299-.734q0-.435.299-.728.3-.293.774-.293m8.152 9.171q.455 0 .852-.169.402-.17.773-.429l.78 1.099a3.8 3.8 0 0 1-1.098.63 3.8 3.8 0 0 1-1.378.247q-1.08 0-1.853-.448a3.1 3.1 0 0 1-1.183-1.261q-.41-.812-.409-1.886 0-1.059.416-1.891.422-.839 1.196-1.313.78-.474 1.859-.475.74 0 1.339.215a3.5 3.5 0 0 1 1.105.624l-.761 1.053a3.1 3.1 0 0 0-.793-.403 2.5 2.5 0 0 0-.838-.143q-.76 0-1.242.553-.474.546-.474 1.78 0 .813.221 1.3.227.488.611.703.39.214.877.214m5.533-1.735q.052.642.293 1.046.247.404.63.591.384.189.852.189.494 0 .929-.156.436-.157.858-.435l.715.981q-.48.403-1.15.65-.663.247-1.463.247-1.117 0-1.885-.461a2.94 2.94 0 0 1-1.15-1.281q-.39-.819-.39-1.885 0-1.027.383-1.852.384-.825 1.105-1.307.722-.488 1.742-.488.95.001 1.638.416.69.416 1.066 1.197.378.773.377 1.865 0 .175-.013.358a6 6 0 0 1-.019.325zm1.476-2.951q-.625 0-1.027.448-.397.443-.468 1.404h2.899q-.013-.87-.364-1.359-.345-.493-1.04-.493"/><path fill="#367afc" d="M447.853 69.685a1 1 0 0 1 0 1.63l-7.024 4.991a1 1 0 0 1-1.579-.815v-9.982a1 1 0 0 1 1.579-.815z"/><path fill="#b266ff" d="M328.981 151v1.699H326V151zm5.963 0v1.699h-2.981V151zm5.963 0v1.699h-2.981V151zm5.963 0v1.699h-2.981V151zm95.407 0v1.699h-2.981V151zm5.963 0v1.699h-2.981V151zm5.963 0v1.699h-2.981V151zm5.963 0v1.699h-2.981V151zm5.963 0v1.699h-2.982V151zm6.049 0v1.699h-3.068V151zm5.877 0v1.699h-2.982V151zM352.981 152.699V151H350v1.699zM134.304 151v1.699h-2.982V151zm5.963 0v1.699h-2.982V151zm5.962 0v1.699h-2.981V151zm5.771 0v1.699h-2.981V151zm89.637 0v1.699h-2.982V151zm5.963 0v1.699h-2.982V151zm5.962 0v1.699h-2.981V151zm5.963 0v1.699h-2.981V151zm5.963 0v1.699h-2.981V151zm5.963 0v1.699h-2.981V151zm6.049 0v1.699h-3.067V151zm5.877 0v1.699h-2.981V151z"/><path fill="#9833ff" d="M155.136 151.873a1 1 0 0 1 0-1.626l7.032-5.035a1 1 0 0 1 1.582.814v10.068a1 1 0 0 1-1.582.814z"/><g stroke="#870fff" stroke-linecap="round" stroke-linejoin="round" stroke-width="1.7" clip-path="url(#a)"><path d="M183.667 150.447v.613a6.668 6.668 0 0 1-12.26 3.625 6.667 6.667 0 0 1 8.306-9.718"/><path d="M183.667 145.727 177 152.4l-2-2"/></g><path fill="#870fff" d="M190.781 153.987q.604 0 .969-.208.37-.214.37-.598a.73.73 0 0 0-.123-.429q-.117-.175-.468-.325a8 8 0 0 0-1.053-.344 6 6 0 0 1-1.164-.416 2.1 2.1 0 0 1-.773-.65q-.273-.396-.273-1.001t.338-1.06q.338-.461.975-.715.643-.26 1.547-.26.884 0 1.547.234a4.3 4.3 0 0 1 1.137.572l-.702 1.047a4 4 0 0 0-.903-.429 3.1 3.1 0 0 0-1.04-.169q-.605 0-.884.175a.55.55 0 0 0-.273.488q0 .22.136.377.144.15.507.292.37.137 1.053.332a6.3 6.3 0 0 1 1.164.429q.5.247.773.656t.273 1.073q0 .747-.435 1.235-.436.488-1.151.728a4.9 4.9 0 0 1-1.54.234q-.975 0-1.703-.28a4.1 4.1 0 0 1-1.235-.721l.89-1.001q.403.319.917.526.52.208 1.124.208m11.117.689a3.5 3.5 0 0 1-.93.416 4.1 4.1 0 0 1-1.183.163q-1.261 0-1.898-.65-.637-.657-.637-1.742v-3.471h-1.495v-1.216h1.495v-1.514l1.716-.208v1.722h2.275l-.175 1.216h-2.1v3.464q0 .534.26.78.26.247.839.247.37 0 .676-.084.312-.092.565-.228zm7.346-1.43q0 .398.117.579a.7.7 0 0 0 .377.266l-.37 1.151a2.5 2.5 0 0 1-.943-.273 1.45 1.45 0 0 1-.591-.657q-.39.475-.988.709a3.4 3.4 0 0 1-1.242.234q-1.053 0-1.67-.598-.618-.599-.618-1.554 0-1.098.858-1.69.864-.597 2.444-.598h.962v-.37q0-.61-.377-.884-.377-.28-1.085-.28-.332 0-.832.091-.495.085-1.021.267l-.409-1.177a7.4 7.4 0 0 1 1.319-.364 7 7 0 0 1 1.216-.117q1.449 0 2.151.618.702.611.702 1.735zm-3.081.767q.39 0 .787-.221.402-.22.63-.617v-1.339h-.676q-.955 0-1.384.305-.423.306-.423.865 0 .481.273.747.273.26.793.26m11.325.663a3.5 3.5 0 0 1-.93.416 4.1 4.1 0 0 1-1.183.163q-1.261 0-1.898-.65-.637-.657-.637-1.742v-3.471h-1.495v-1.216h1.495v-1.514l1.716-.208v1.722h2.275l-.175 1.216h-2.1v3.464q0 .534.26.78.26.247.839.247.37 0 .676-.084.312-.092.565-.228zm3.569-6.5v4.771q0 .56.221.787t.644.227q.404 0 .786-.24.384-.248.624-.624v-4.921h1.716v6.884h-1.495l-.091-.845a2.4 2.4 0 0 1-.949.773 2.8 2.8 0 0 1-1.196.267q-.995 0-1.488-.559-.488-.566-.488-1.541v-4.979zm8.699 5.811q.605 0 .968-.208.37-.214.371-.598a.72.72 0 0 0-.124-.429q-.117-.175-.468-.325a8 8 0 0 0-1.053-.344 6 6 0 0 1-1.163-.416 2.1 2.1 0 0 1-.774-.65q-.273-.396-.273-1.001t.338-1.06q.339-.461.975-.715.644-.26 1.547-.26.884 0 1.547.234.663.228 1.138.572l-.702 1.047a4 4 0 0 0-.904-.429 3.1 3.1 0 0 0-1.04-.169q-.604 0-.884.175a.55.55 0 0 0-.273.488q0 .22.137.377.143.15.507.292.37.137 1.053.332.67.181 1.163.429.501.247.774.656t.273 1.073q0 .747-.436 1.235-.435.488-1.15.728a4.9 4.9 0 0 1-1.541.234q-.974 0-1.703-.28a4.1 4.1 0 0 1-1.235-.721l.891-1.001q.403.319.916.526.52.208 1.125.208"/><path fill="#9833ff" d="M356.136 151.873a1 1 0 0 1 0-1.626l7.032-5.035a1 1 0 0 1 1.582.814v10.068a1 1 0 0 1-1.582.814z"/><g stroke="#870fff" stroke-linecap="round" stroke-linejoin="round" stroke-width="1.7" clip-path="url(#b)"><path d="M385.583 150.447v.613a6.4 6.4 0 0 1-1.41 3.988 7.1 7.1 0 0 1-3.665 2.401 7.5 7.5 0 0 1-4.463-.139c-1.432-.498-2.656-1.419-3.487-2.625a6.37 6.37 0 0 1-1.126-4.067 6.46 6.46 0 0 1 1.684-3.893 7.17 7.17 0 0 1 3.823-2.172 7.5 7.5 0 0 1 4.444.414"/><path d="M385.583 145.727 378.5 152.4l-2.125-2"/></g><path fill="#870fff" d="M392.781 153.987q.605 0 .969-.208.37-.214.37-.598a.73.73 0 0 0-.123-.429q-.117-.175-.468-.325a8 8 0 0 0-1.053-.344 6 6 0 0 1-1.164-.416 2.1 2.1 0 0 1-.773-.65q-.273-.396-.273-1.001t.338-1.06q.338-.461.975-.715.643-.26 1.547-.26.884 0 1.547.234a4.3 4.3 0 0 1 1.137.572l-.702 1.047a4 4 0 0 0-.903-.429 3.1 3.1 0 0 0-1.04-.169q-.605 0-.884.175a.55.55 0 0 0-.273.488q0 .22.136.377.144.15.507.292.37.137 1.053.332a6.3 6.3 0 0 1 1.164.429q.5.247.773.656t.273 1.073q0 .747-.435 1.235-.436.488-1.151.728a4.9 4.9 0 0 1-1.54.234q-.975 0-1.703-.28a4.1 4.1 0 0 1-1.235-.721l.89-1.001q.403.319.917.526.52.208 1.124.208m11.117.689a3.5 3.5 0 0 1-.93.416 4.1 4.1 0 0 1-1.183.163q-1.261 0-1.898-.65-.637-.657-.637-1.742v-3.471h-1.495v-1.216h1.495v-1.514l1.716-.208v1.722h2.275l-.175 1.216h-2.1v3.464q0 .534.26.78.26.247.839.247.37 0 .676-.084.312-.092.565-.228zm7.346-1.43q0 .398.117.579a.7.7 0 0 0 .377.266l-.37 1.151a2.5 2.5 0 0 1-.943-.273 1.45 1.45 0 0 1-.591-.657q-.39.475-.988.709a3.4 3.4 0 0 1-1.242.234q-1.053 0-1.67-.598-.618-.599-.618-1.554 0-1.098.858-1.69.864-.597 2.444-.598h.962v-.37q0-.61-.377-.884-.377-.28-1.085-.28-.332 0-.832.091-.495.085-1.021.267l-.409-1.177a7.4 7.4 0 0 1 1.319-.364 7 7 0 0 1 1.216-.117q1.449 0 2.151.618.702.611.702 1.735zm-3.081.767q.39 0 .787-.221.402-.22.63-.617v-1.339h-.676q-.955 0-1.384.305-.423.306-.423.865 0 .481.273.747.273.26.793.26m11.325.663a3.5 3.5 0 0 1-.93.416 4.1 4.1 0 0 1-1.183.163q-1.261 0-1.898-.65-.637-.657-.637-1.742v-3.471h-1.495v-1.216h1.495v-1.514l1.716-.208v1.722h2.275l-.175 1.216h-2.1v3.464q0 .534.26.78.26.247.839.247.37 0 .676-.084.312-.092.565-.228zm3.569-6.5v4.771q0 .56.221.787.222.227.644.227.404 0 .786-.24.384-.248.624-.624v-4.921h1.716v6.884h-1.495l-.091-.845a2.4 2.4 0 0 1-.949.773 2.8 2.8 0 0 1-1.196.267q-.994 0-1.488-.559-.488-.566-.488-1.541v-4.979zm8.699 5.811q.605 0 .968-.208.37-.214.371-.598a.72.72 0 0 0-.124-.429q-.117-.175-.468-.325a8 8 0 0 0-1.053-.344 6 6 0 0 1-1.163-.416 2.1 2.1 0 0 1-.774-.65q-.273-.396-.273-1.001t.338-1.06q.339-.461.975-.715.644-.26 1.547-.26.885 0 1.547.234.664.228 1.138.572l-.702 1.047a4 4 0 0 0-.904-.429 3.1 3.1 0 0 0-1.04-.169q-.604 0-.884.175a.55.55 0 0 0-.273.488q0 .22.137.377.143.15.507.292.37.137 1.053.332.67.181 1.163.429.501.247.774.656t.273 1.073q0 .747-.436 1.235-.435.488-1.15.728a4.9 4.9 0 0 1-1.541.234q-.974 0-1.703-.28a4.1 4.1 0 0 1-1.235-.721l.891-1.001q.403.319.916.526.52.208 1.125.208"/><path fill="#b266ff" d="M310.815 111.853a1 1 0 0 1-1.63 0l-4.991-7.024a1 1 0 0 1 .815-1.579h9.982a1 1 0 0 1 .815 1.579z"/><path fill="#699bfc" d="M300.185 82.147a1 1 0 0 1 1.63 0l4.991 7.024a1 1 0 0 1-.815 1.579h-9.982a1 1 0 0 1-.815-1.58z"/><path fill="#b266ff" d="M511.665 152.853a1 1 0 0 1-1.631 0l-4.99-7.024a1 1 0 0 1 .815-1.579h9.981a1 1 0 0 1 .816 1.579z"/><g filter="url(#c)"><g clip-path="url(#d)"><rect width="68" height="158" x="259" y="31" fill="#1362fb" stroke="#1362fb" stroke-width="2" rx="7"/><path fill="#fff" d="M283.761 93.48a.47.47 0 0 1 .328-.437.58.58 0 0 1 .627.132l6.91 7.48h-7.865zM276.487 101.74h15.02l-7.728 7.383-.158.15a3.851 3.851 0 0 0-1.044 2.148q-.039.254-.04.511v7.309h-6.053a1.46 1.46 0 0 1-1.03-.379 1.38 1.38 0 0 1-.454-.975v-14.793a1.36 1.36 0 0 1 .455-.976 1.45 1.45 0 0 1 1.032-.378"/><path fill="#fff" d="M283.837 111.32c.11-.452.337-.868.659-1.211l7.89-7.533v16.665c-.256.266-7.461 8.142-7.922 8.615a.42.42 0 0 1-.436.127.4.4 0 0 1-.196-.13.4.4 0 0 1-.089-.214V112.81a7 7 0 0 1 .094-1.49M302.249 93.48a.45.45 0 0 0-.092-.272.48.48 0 0 0-.239-.166.58.58 0 0 0-.627.133l-6.903 7.48h7.869zM309.513 101.74h-14.995l7.731 7.383.155.15q.261.273.465.588c.308.473.507 1.005.583 1.56q.036.255.04.511v7.309h6.021a1.48 1.48 0 0 0 1.032-.377c.138-.126.25-.277.328-.445s.121-.348.127-.532v-14.793a1.36 1.36 0 0 0-.455-.976 1.45 1.45 0 0 0-1.032-.378"/><path fill="#fff" d="M302.17 111.32a2.7 2.7 0 0 0-.659-1.211l-7.886-7.533v16.665c.252.266 7.461 8.142 7.922 8.615a.421.421 0 0 0 .629-.006.4.4 0 0 0 .091-.211V112.81a6.8 6.8 0 0 0-.097-1.49"/></g></g><g filter="url(#e)"><rect width="102" height="160" x="30" y="30" fill="#fff" rx="4"/><rect width="101" height="159" x="30.5" y="30.5" stroke="#fff" rx="3.5"/><g fill="#254856" fill-rule="evenodd" clip-path="url(#f)" clip-rule="evenodd"><path d="M77.157 97.5c-1.148 0-1.895.383-2.562 1.67l-3.043 5.884v-5.228c0-1.56-.72-2.326-2.055-2.326-1.334 0-1.895.465-2.562 1.779l-2.882 5.775v-5.173c0-1.67-.667-2.381-2.295-2.381h-3.31c-1.254 0-1.948.602-1.948 1.697s.667 1.751 1.895 1.751h1.361v6.596c0 1.861 1.228 2.956 2.99 2.956 1.76 0 2.561-.712 3.442-2.381l1.921-3.695v3.12c0 1.834 1.175 2.956 2.963 2.956s2.455-.629 3.47-2.381l4.43-7.663c.96-1.67.293-2.956-1.842-2.956zM85.484 97.5c-3.63 0-6.379 2.764-6.379 6.514 0 3.749 2.776 6.486 6.379 6.486s6.352-2.764 6.378-6.486c0-3.75-2.775-6.514-6.378-6.514m0 9.004c-1.361 0-2.295-1.04-2.295-2.49s.934-2.518 2.295-2.518 2.295 1.067 2.295 2.518-.907 2.49-2.295 2.49M99.122 97.5c-3.603 0-6.38 2.764-6.38 6.514 0 3.749 2.776 6.486 6.38 6.486 3.602 0 6.378-2.764 6.378-6.486s-2.776-6.514-6.379-6.514m0 9.004c-1.388 0-2.27-1.04-2.27-2.49s.908-2.518 2.27-2.518c1.361 0 2.295 1.067 2.295 2.518s-.908 2.49-2.296 2.49"/></g><path fill="#324b7c" d="m45.902 118.53-1.242 8.97H42.9l-.884-6.637-.917 6.637h-1.8l-1.144-8.97h1.456l.708 7.514.95-6.474h1.553l.897 6.474.838-7.514zm3.927 1.924q1.008 0 1.697.448.69.449 1.04 1.255.357.806.357 1.898 0 1.086-.364 1.904-.357.813-1.053 1.268-.689.449-1.683.449t-1.69-.436q-.69-.442-1.053-1.255-.358-.812-.358-1.917 0-1.072.358-1.885a2.9 2.9 0 0 1 1.06-1.268q.694-.46 1.69-.461m0 1.131q-.786 0-1.183.604-.396.598-.396 1.879 0 1.273.39 1.878.396.605 1.183.605.786 0 1.176-.605.397-.604.397-1.891 0-1.268-.39-1.866-.39-.604-1.177-.604m7.795-1.131q1.007 0 1.697.448.69.449 1.04 1.255.357.806.357 1.898 0 1.086-.364 1.904-.358.813-1.053 1.268-.69.449-1.683.449-.995 0-1.69-.436-.69-.442-1.053-1.255-.358-.812-.358-1.917 0-1.072.358-1.885a2.9 2.9 0 0 1 1.06-1.268q.694-.46 1.69-.461m0 1.131q-.786 0-1.183.604-.396.598-.396 1.879 0 1.273.39 1.878.396.605 1.183.605.786 0 1.176-.605.397-.604.397-1.891 0-1.268-.39-1.866-.39-.604-1.177-.604m8.543-3.237q.91 0 1.534.24.63.234 1.17.676l-.787.936a2.77 2.77 0 0 0-1.846-.663q-.67 0-1.235.338-.565.339-.91 1.099-.338.76-.338 2.028 0 1.242.325 2.002.326.76.89 1.105.566.345 1.268.344.722 0 1.196-.234.475-.24.839-.539l.728.929a4 4 0 0 1-1.138.754q-.69.313-1.677.313-1.137 0-2.047-.534-.905-.539-1.43-1.579-.52-1.04-.52-2.561 0-1.508.54-2.542.539-1.04 1.442-1.573a3.8 3.8 0 0 1 1.996-.539m7.047 2.106q1.007 0 1.697.448.689.449 1.04 1.255.357.806.357 1.898 0 1.086-.364 1.904-.358.813-1.053 1.268-.69.449-1.683.449-.995 0-1.69-.436-.69-.442-1.053-1.255-.358-.812-.358-1.917 0-1.072.358-1.885a2.9 2.9 0 0 1 1.06-1.268q.694-.46 1.69-.461m0 1.131q-.786 0-1.183.604-.396.598-.396 1.879 0 1.273.39 1.878.396.605 1.183.605.786 0 1.176-.605.397-.604.397-1.891 0-1.268-.39-1.866-.39-.604-1.177-.604m9.778-1.131q.39 0 .701.169.313.17.488.591.182.423.182 1.183v5.103H83.07v-4.901q0-.54-.078-.774-.072-.234-.384-.234a.95.95 0 0 0-.5.156q-.254.15-.514.52v5.233h-1.176v-4.901q0-.54-.079-.774-.07-.234-.383-.234a.96.96 0 0 0-.507.156q-.248.15-.507.52v5.233h-1.3v-6.864h1.099l.097.741q.292-.41.637-.663.345-.26.832-.26.39 0 .709.195t.468.682q.285-.39.65-.63.363-.247.858-.247m7.794 0q.39 0 .703.169.311.17.487.591.182.423.182 1.183v5.103h-1.293v-4.901q0-.54-.078-.774-.072-.234-.384-.234a.95.95 0 0 0-.5.156q-.254.15-.514.52v5.233h-1.176v-4.901q0-.54-.078-.774-.072-.234-.384-.234a.96.96 0 0 0-.507.156q-.248.15-.507.52v5.233h-1.3v-6.864h1.099l.097.741q.292-.41.637-.663.345-.26.832-.26.39 0 .709.195t.467.682q.287-.39.65-.63.365-.247.859-.247m4.272 4.082q.045.702.3 1.15.253.443.662.65.417.209.91.209.507 0 .936-.157.43-.156.865-.442l.63.871q-.48.39-1.124.624a4 4 0 0 1-1.378.235q-1.065 0-1.807-.456a2.9 2.9 0 0 1-1.118-1.267q-.384-.813-.384-1.879 0-1.033.377-1.846a3.07 3.07 0 0 1 1.08-1.293q.7-.481 1.676-.481.917 0 1.573.416.663.416 1.02 1.183.365.76.365 1.833 0 .175-.013.351-.006.169-.02.299zm1.638-3.003a1.47 1.47 0 0 0-1.13.487q-.442.487-.514 1.521h3.178q-.019-.968-.416-1.488-.39-.52-1.118-.52m5.013 5.967v-1.04h1.008v-4.791h-1.008v-1.033h2.119l.267 1.592q.383-.864.949-1.313.572-.455 1.469-.455.304 0 .546.052.246.046.487.124l-.435 1.248a3 3 0 0 0-.39-.085 2.4 2.4 0 0 0-.403-.032q-.748 0-1.294.559-.539.559-.851 1.586v2.548h1.384v1.04zm4.55-4.336v-1.69l.182-.838h1.105l-.247 2.528zm6.489 3.315q.48 0 .897-.162.415-.17.793-.436l.676.936a3.6 3.6 0 0 1-1.092.624 3.8 3.8 0 0 1-1.32.235q-1.053 0-1.8-.443a2.94 2.94 0 0 1-1.144-1.254q-.397-.806-.397-1.879 0-1.046.397-1.865a3.1 3.1 0 0 1 1.157-1.3q.753-.481 1.813-.481.702 0 1.294.208.591.208 1.085.617l-.669.917a3.4 3.4 0 0 0-.826-.423 2.5 2.5 0 0 0-.858-.149q-.812 0-1.332.598-.514.599-.514 1.878 0 .858.234 1.385.24.52.657.76a1.9 1.9 0 0 0 .949.234m5.695-1.943q.045.702.299 1.15.253.443.663.65.416.209.91.209.507 0 .936-.157.429-.156.865-.442l.63.871q-.481.39-1.124.624a4 4 0 0 1-1.378.235q-1.066 0-1.807-.456a2.9 2.9 0 0 1-1.118-1.267q-.384-.813-.384-1.879 0-1.033.377-1.846a3.07 3.07 0 0 1 1.079-1.293q.702-.481 1.677-.481.916 0 1.573.416.663.416 1.021 1.183.364.76.364 1.833 0 .175-.013.351a5 5 0 0 1-.02.299zm1.638-3.003a1.47 1.47 0 0 0-1.131.487q-.442.487-.513 1.521h3.178q-.02-.968-.416-1.488-.39-.52-1.118-.52"/></g><g filter="url(#g)"><rect width="102" height="160" x="466" y="30" fill="#f8f9fc" rx="4"/><path stroke="#324b7c" stroke-linecap="round" stroke-linejoin="round" stroke-width="2.3" d="M525.667 102.36v-2.08a4.08 4.08 0 0 0-1.27-2.942 4.42 4.42 0 0 0-3.064-1.218h-8.666c-1.15 0-2.252.438-3.065 1.218a4.08 4.08 0 0 0-1.269 2.942v2.08M517 91.96c2.393 0 4.333-1.862 4.333-4.16s-1.94-4.16-4.333-4.16-4.333 1.862-4.333 4.16 1.94 4.16 4.333 4.16"/><path fill="#324b7c" d="M506.851 119.054v3.426h-1.521v-3.413l-2.99-5.557h1.657l2.126 4.251 2.138-4.251h1.58zm6.521-3.62q1.007 0 1.696.448.689.449 1.04 1.255.358.806.358 1.898 0 1.085-.364 1.904-.358.813-1.053 1.268-.69.448-1.684.448t-1.69-.435q-.688-.442-1.053-1.255-.357-.811-.357-1.917 0-1.072.357-1.885a2.9 2.9 0 0 1 1.06-1.268q.695-.46 1.69-.461m0 1.131q-.787 0-1.183.604-.397.598-.397 1.879 0 1.273.39 1.878.397.605 1.183.605t1.177-.605q.396-.604.396-1.891 0-1.267-.39-1.866-.39-.604-1.176-.604m5.981-.949v4.797q0 .611.24.871.248.26.741.26.469 0 .904-.28a2.2 2.2 0 0 0 .689-.682v-4.966h1.456v6.864h-1.254l-.091-.878a2.5 2.5 0 0 1-.969.787q-.585.266-1.196.266-.994 0-1.489-.546-.487-.552-.487-1.514v-4.979zm5.884 6.864v-1.04h1.007v-4.791h-1.007v-1.033h2.119l.266 1.592q.384-.864.949-1.313.572-.455 1.469-.455.306 0 .546.052.248.046.488.124l-.436 1.248a3 3 0 0 0-.793-.117q-.747 0-1.293.559-.54.559-.852 1.586v2.548h1.385v1.04zm4.55-4.336v-1.69l.182-.838h1.105l-.247 2.528zm-30.406 17.315q.48 0 .897-.162.415-.17.793-.436l.676.936a3.6 3.6 0 0 1-1.092.624 3.8 3.8 0 0 1-1.32.234q-1.053 0-1.8-.442a2.94 2.94 0 0 1-1.144-1.254q-.397-.806-.397-1.879 0-1.046.397-1.865a3.1 3.1 0 0 1 1.157-1.3q.754-.481 1.813-.481.702 0 1.294.208.591.208 1.085.617l-.669.917a3.4 3.4 0 0 0-.826-.423 2.5 2.5 0 0 0-.858-.149q-.812 0-1.332.598-.514.599-.514 1.878 0 .858.234 1.385.24.52.657.76a1.9 1.9 0 0 0 .949.234m6.982-8.599v7.748q0 .475.286.676.292.195.754.195.299 0 .566-.065t.52-.163l.37 1.014a3.98 3.98 0 0 1-1.768.39q-1.033 0-1.612-.578-.572-.585-.572-1.599v-6.546h-2.073v-1.072zm8.01 2.756v5.798h1.865v1.066h-5.375v-1.066h2.054v-4.732h-1.989v-1.066zm-1.014-3.361q.428 0 .689.26.266.26.266.65t-.266.657q-.26.267-.689.266a.92.92 0 0 1-.683-.266.9.9 0 0 1-.266-.657.87.87 0 0 1 .266-.65.94.94 0 0 1 .683-.26m5.747 7.261q.045.702.299 1.15.253.443.663.65.416.208.91.208.507 0 .936-.156a4.2 4.2 0 0 0 .864-.442l.631.871a3.9 3.9 0 0 1-1.124.624 4 4 0 0 1-1.379.234q-1.065 0-1.807-.455a2.9 2.9 0 0 1-1.118-1.267q-.383-.813-.383-1.879 0-1.033.377-1.846a3.07 3.07 0 0 1 1.079-1.293q.702-.481 1.677-.481.916 0 1.573.416.663.416 1.02 1.183.364.76.364 1.833 0 .175-.013.351a5 5 0 0 1-.019.299zm1.638-3.003a1.47 1.47 0 0 0-1.131.487q-.442.488-.514 1.521h3.179q-.02-.968-.416-1.488-.39-.52-1.118-.52m4.428 5.967v-6.864h1.254l.111.89a2.86 2.86 0 0 1 1.014-.799q.585-.273 1.202-.273.963 0 1.437.539.481.534.481 1.502v5.005h-1.456v-4.284q0-.597-.072-.962-.071-.363-.286-.526-.207-.162-.624-.163-.332 0-.63.143a2.2 2.2 0 0 0-.546.377 3 3 0 0 0-.429.488v4.927zm13.008-.364a3.4 3.4 0 0 1-.904.39q-.527.15-1.098.149-1.196 0-1.82-.617-.618-.624-.618-1.638v-3.725h-1.527v-1.059h1.527v-1.534l1.456-.176v1.71h2.314l-.162 1.059h-2.152v3.712q0 .552.273.825.28.267.91.267.378 0 .696-.091.318-.092.578-.234z"/></g><defs><clipPath id="a"><path fill="#fff" d="M169 143.06h16v16h-16z"/></clipPath><clipPath id="b"><path fill="#fff" d="M370 143.06h17v16h-17z"/></clipPath><clipPath id="d"><rect width="70" height="160" x="258" y="30" fill="#fff" rx="6"/></clipPath><clipPath id="f"><path fill="#fff" d="M56.5 97.5h49v13h-49z"/></clipPath><filter id="c" width="108.692" height="198.738" x="238.654" y="20.608" color-interpolation-filters="sRGB" filterUnits="userSpaceOnUse"><feFlood flood-opacity="0" result="BackgroundImageFix"/><feColorMatrix in="SourceAlpha" result="hardAlpha" values="0 0 0 0 0 0 0 0 0 0 0 0 0 0 0 0 0 0 127 0"/><feOffset/><feGaussianBlur stdDeviation=".91"/><feColorMatrix values="0 0 0 0 0.196078 0 0 0 0 0.294118 0 0 0 0 0.486275 0 0 0 0.0310018 0"/><feBlend in2="BackgroundImageFix" result="effect1_dropShadow_2_3791"/><feColorMatrix in="SourceAlpha" result="hardAlpha" values="0 0 0 0 0 0 0 0 0 0 0 0 0 0 0 0 0 0 127 0"/><feOffset/><feGaussianBlur stdDeviation="2.302"/><feColorMatrix values="0 0 0 0 0.196078 0 0 0 0 0.294118 0 0 0 0 0.486275 0 0 0 0.0443709 0"/><feBlend in2="effect1_dropShadow_2_3791" result="effect2_dropShadow_2_3791"/><feColorMatrix in="SourceAlpha" result="hardAlpha" values="0 0 0 0 0 0 0 0 0 0 0 0 0 0 0 0 0 0 127 0"/><feOffset/><feGaussianBlur stdDeviation="4.696"/><feColorMatrix values="0 0 0 0 0.196078 0 0 0 0 0.294118 0 0 0 0 0.486275 0 0 0 0.0556291 0"/><feBlend in2="effect2_dropShadow_2_3791" result="effect3_dropShadow_2_3791"/><feColorMatrix in="SourceAlpha" result="hardAlpha" values="0 0 0 0 0 0 0 0 0 0 0 0 0 0 0 0 0 0 127 0"/><feOffset dy="10"/><feGaussianBlur stdDeviation="9.673"/><feColorMatrix values="0 0 0 0 0.196078 0 0 0 0 0.294118 0 0 0 0 0.486275 0 0 0 0.0689982 0"/><feBlend in2="effect3_dropShadow_2_3791" result="effect4_dropShadow_2_3791"/><feBlend in="SourceGraphic" in2="effect4_dropShadow_2_3791" result="shape"/></filter><filter id="e" width="140.692" height="198.738" x="10.654" y="20.608" color-interpolation-filters="sRGB" filterUnits="userSpaceOnUse"><feFlood flood-opacity="0" result="BackgroundImageFix"/><feColorMatrix in="SourceAlpha" result="hardAlpha" values="0 0 0 0 0 0 0 0 0 0 0 0 0 0 0 0 0 0 127 0"/><feOffset/><feGaussianBlur stdDeviation=".91"/><feColorMatrix values="0 0 0 0 0.196078 0 0 0 0 0.294118 0 0 0 0 0.486275 0 0 0 0.0310018 0"/><feBlend in2="BackgroundImageFix" result="effect1_dropShadow_2_3791"/><feColorMatrix in="SourceAlpha" result="hardAlpha" values="0 0 0 0 0 0 0 0 0 0 0 0 0 0 0 0 0 0 127 0"/><feOffset/><feGaussianBlur stdDeviation="2.302"/><feColorMatrix values="0 0 0 0 0.196078 0 0 0 0 0.294118 0 0 0 0 0.486275 0 0 0 0.0443709 0"/><feBlend in2="effect1_dropShadow_2_3791" result="effect2_dropShadow_2_3791"/><feColorMatrix in="SourceAlpha" result="hardAlpha" values="0 0 0 0 0 0 0 0 0 0 0 0 0 0 0 0 0 0 127 0"/><feOffset/><feGaussianBlur stdDeviation="4.696"/><feColorMatrix values="0 0 0 0 0.196078 0 0 0 0 0.294118 0 0 0 0 0.486275 0 0 0 0.0556291 0"/><feBlend in2="effect2_dropShadow_2_3791" result="effect3_dropShadow_2_3791"/><feColorMatrix in="SourceAlpha" result="hardAlpha" values="0 0 0 0 0 0 0 0 0 0 0 0 0 0 0 0 0 0 127 0"/><feOffset dy="10"/><feGaussianBlur stdDeviation="9.673"/><feColorMatrix values="0 0 0 0 0.196078 0 0 0 0 0.294118 0 0 0 0 0.486275 0 0 0 0.0689982 0"/><feBlend in2="effect3_dropShadow_2_3791" result="effect4_dropShadow_2_3791"/><feBlend in="SourceGraphic" in2="effect4_dropShadow_2_3791" result="shape"/></filter><filter id="g" width="140.692" height="198.738" x="446.654" y="20.608" color-interpolation-filters="sRGB" filterUnits="userSpaceOnUse"><feFlood flood-opacity="0" result="BackgroundImageFix"/><feColorMatrix in="SourceAlpha" result="hardAlpha" values="0 0 0 0 0 0 0 0 0 0 0 0 0 0 0 0 0 0 127 0"/><feOffset/><feGaussianBlur stdDeviation=".91"/><feColorMatrix values="0 0 0 0 0.196078 0 0 0 0 0.294118 0 0 0 0 0.486275 0 0 0 0.0310018 0"/><feBlend in2="BackgroundImageFix" result="effect1_dropShadow_2_3791"/><feColorMatrix in="SourceAlpha" result="hardAlpha" values="0 0 0 0 0 0 0 0 0 0 0 0 0 0 0 0 0 0 127 0"/><feOffset/><feGaussianBlur stdDeviation="2.302"/><feColorMatrix values="0 0 0 0 0.196078 0 0 0 0 0.294118 0 0 0 0 0.486275 0 0 0 0.0443709 0"/><feBlend in2="effect1_dropShadow_2_3791" result="effect2_dropShadow_2_3791"/><feColorMatrix in="SourceAlpha" result="hardAlpha" values="0 0 0 0 0 0 0 0 0 0 0 0 0 0 0 0 0 0 127 0"/><feOffset/><feGaussianBlur stdDeviation="4.696"/><feColorMatrix values="0 0 0 0 0.196078 0 0 0 0 0.294118 0 0 0 0 0.486275 0 0 0 0.0556291 0"/><feBlend in2="effect2_dropShadow_2_3791" result="effect3_dropShadow_2_3791"/><feColorMatrix in="SourceAlpha" result="hardAlpha" values="0 0 0 0 0 0 0 0 0 0 0 0 0 0 0 0 0 0 127 0"/><feOffset dy="10"/><feGaussianBlur stdDeviation="9.673"/><feColorMatrix values="0 0 0 0 0.196078 0 0 0 0 0.294118 0 0 0 0 0.486275 0 0 0 0.0689982 0"/><feBlend in2="effect3_dropShadow_2_3791" result="effect4_dropShadow_2_3791"/><feBlend in="SourceGraphic" in2="effect4_dropShadow_2_3791" result="shape"/></filter></defs></svg>