<svg width="598" height="220" viewBox="0 0 598 220" fill="none" xmlns="http://www.w3.org/2000/svg">
<path d="M329.981 70V71.6992H327V70H329.981ZM335.944 70V71.6992H332.963V70H335.944ZM341.907 70V71.6992H338.926V70H341.907ZM455.166 70V71.6992H452.185V70H455.166ZM461.129 70V71.6992H458.147V70H461.129ZM467.178 70V71.6992H464.11V70H467.178ZM473.055 70V71.6992H470.073V70H473.055Z" fill="#699BFC"/>
<path d="M324.481 71.6992V70H321.5V71.6992H324.481Z" fill="#699BFC"/>
<path d="M128.304 70V71.6992H125.322V70H128.304ZM134.267 70V71.6992H131.285V70H134.267ZM140.229 70V71.6992H137.248V70H140.229ZM146.192 70V71.6992H143.211V70H146.192ZM152.155 70V71.6992H149.174V70H152.155ZM235.637 70V71.6992H232.655V70H235.637ZM241.6 70V71.6992H238.618V70H241.6ZM247.562 70V71.6992H244.581V70H247.562ZM253.525 70V71.6992H250.544V70H253.525ZM259.488 70V71.6992H256.507V70H259.488ZM265.451 70V71.6992H262.47V70H265.451ZM271.5 70V71.6992H268.433V70H271.5ZM277.377 70V71.6992H274.396V70H277.377Z" fill="#699BFC"/>
<path d="M163.833 62.5833H158C157.558 62.5833 157.134 62.7501 156.821 63.0471C156.509 63.344 156.333 63.7467 156.333 64.1667V76.8333C156.333 77.2533 156.509 77.656 156.821 77.9529C157.134 78.2498 157.558 78.4167 158 78.4167H168C168.442 78.4167 168.866 78.2498 169.178 77.9529C169.491 77.656 169.667 77.2533 169.667 76.8333V68.125L163.833 62.5833Z" stroke="#1362FB" stroke-width="1.7" stroke-linecap="round" stroke-linejoin="round"/>
<path d="M163.833 62.5833V68.125H169.667" stroke="#1362FB" stroke-width="1.7" stroke-linecap="round" stroke-linejoin="round"/>
<path d="M178.919 67.4215C179.604 67.4215 180.185 67.571 180.661 67.87C181.138 68.169 181.5 68.5915 181.747 69.1375C181.998 69.6792 182.124 70.314 182.124 71.042C182.124 71.7873 181.998 72.433 181.747 72.979C181.495 73.525 181.131 73.9475 180.655 74.2465C180.178 74.5455 179.597 74.695 178.913 74.695C178.232 74.695 177.652 74.5498 177.171 74.2595C176.694 73.9648 176.33 73.5467 176.079 73.005C175.827 72.459 175.702 71.809 175.702 71.055C175.702 70.3357 175.827 69.703 176.079 69.157C176.33 68.611 176.696 68.1863 177.177 67.883C177.658 67.5753 178.239 67.4215 178.919 67.4215ZM178.919 68.715C178.438 68.715 178.079 68.9035 177.84 69.2805C177.606 69.6575 177.489 70.249 177.489 71.055C177.489 71.8697 177.606 72.4655 177.84 72.8425C178.074 73.2152 178.432 73.4015 178.913 73.4015C179.394 73.4015 179.751 73.2152 179.985 72.8425C180.219 72.4655 180.336 71.8653 180.336 71.042C180.336 70.2403 180.219 69.6532 179.985 69.2805C179.751 68.9035 179.396 68.715 178.919 68.715ZM183.919 74.5V73.3105H184.888V68.7995H183.919V67.6165H186.194L186.513 69.196C186.764 68.611 187.08 68.1712 187.462 67.8765C187.843 67.5775 188.322 67.428 188.898 67.428C189.119 67.428 189.314 67.4453 189.483 67.48C189.656 67.5147 189.821 67.5602 189.977 67.6165L189.464 69.0595C189.329 69.0248 189.201 68.9988 189.08 68.9815C188.959 68.9598 188.822 68.949 188.671 68.949C188.194 68.949 187.778 69.1353 187.423 69.508C187.072 69.8763 186.799 70.3768 186.604 71.0095V73.3105H187.975V74.5H183.919ZM188.528 70.301V68.4745L188.762 67.6165H189.977L189.672 70.301H188.528ZM195.64 64.685L197.356 64.867V74.5H195.835L195.731 73.6875C195.519 73.9908 195.252 74.2357 194.932 74.422C194.611 74.604 194.238 74.695 193.814 74.695C193.233 74.695 192.752 74.5433 192.371 74.24C191.994 73.9367 191.712 73.512 191.526 72.966C191.344 72.4157 191.253 71.7765 191.253 71.0485C191.253 70.3465 191.361 69.7225 191.578 69.1765C191.794 68.6305 192.106 68.2015 192.514 67.8895C192.925 67.5775 193.413 67.4215 193.976 67.4215C194.314 67.4215 194.622 67.48 194.899 67.597C195.176 67.714 195.423 67.8873 195.64 68.117V64.685ZM194.438 68.702C194.004 68.702 193.662 68.8905 193.411 69.2675C193.164 69.6402 193.04 70.236 193.04 71.055C193.04 71.6313 193.092 72.0928 193.196 72.4395C193.3 72.7818 193.447 73.0288 193.638 73.1805C193.829 73.3322 194.054 73.408 194.314 73.408C194.6 73.408 194.851 73.3235 195.068 73.1545C195.289 72.9812 195.48 72.7667 195.64 72.511V69.378C195.48 69.1657 195.3 69.001 195.101 68.884C194.906 68.7627 194.685 68.702 194.438 68.702ZM200.906 71.5815C200.941 72.0105 201.039 72.3593 201.199 72.628C201.364 72.8967 201.574 73.0938 201.829 73.2195C202.085 73.3452 202.369 73.408 202.681 73.408C203.01 73.408 203.32 73.356 203.61 73.252C203.901 73.148 204.187 73.0028 204.468 72.8165L205.183 73.798C204.863 74.0667 204.479 74.2833 204.033 74.448C203.591 74.6127 203.103 74.695 202.57 74.695C201.825 74.695 201.197 74.5412 200.685 74.2335C200.178 73.9258 199.795 73.499 199.535 72.953C199.275 72.407 199.145 71.7787 199.145 71.068C199.145 70.3833 199.273 69.7658 199.528 69.2155C199.784 68.6652 200.152 68.2297 200.633 67.909C201.114 67.584 201.695 67.4215 202.375 67.4215C203.008 67.4215 203.554 67.5602 204.013 67.8375C204.473 68.1148 204.828 68.5135 205.079 69.0335C205.331 69.5492 205.456 70.171 205.456 70.899C205.456 71.016 205.452 71.1352 205.443 71.2565C205.439 71.3778 205.433 71.4862 205.424 71.5815H200.906ZM202.382 68.6305C201.966 68.6305 201.624 68.78 201.355 69.079C201.091 69.3737 200.935 69.8417 200.887 70.483H203.786C203.777 69.9023 203.656 69.4495 203.422 69.1245C203.192 68.7952 202.846 68.6305 202.382 68.6305ZM207.304 74.5V73.3105H208.272V68.7995H207.304V67.6165H209.579L209.897 69.196C210.149 68.611 210.465 68.1712 210.846 67.8765C211.228 67.5775 211.707 67.428 212.283 67.428C212.504 67.428 212.699 67.4453 212.868 67.48C213.041 67.5147 213.206 67.5602 213.362 67.6165L212.848 69.0595C212.714 69.0248 212.586 68.9988 212.465 68.9815C212.344 68.9598 212.207 68.949 212.055 68.949C211.579 68.949 211.163 69.1353 210.807 69.508C210.456 69.8763 210.183 70.3768 209.988 71.0095V73.3105H211.36V74.5H207.304ZM211.912 70.301V68.4745L212.146 67.6165H213.362L213.056 70.301H211.912Z" fill="#1362FB"/>
<path d="M227.853 69.6848C228.414 70.0835 228.414 70.9165 227.853 71.3152L220.829 76.306C220.167 76.7765 219.25 76.3031 219.25 75.4909L219.25 65.5091C219.25 64.6969 220.167 64.2235 220.829 64.694L227.853 69.6848Z" fill="#367AFC"/>
<path d="M354.667 62.5833H348C347.558 62.5833 347.134 62.7501 346.821 63.0471C346.509 63.344 346.333 63.7467 346.333 64.1667V76.8333C346.333 77.2533 346.509 77.656 346.821 77.9529C347.134 78.2498 347.558 78.4167 348 78.4167H358C358.442 78.4167 358.866 78.2498 359.178 77.9529C359.491 77.656 359.667 77.2533 359.667 76.8333V67.3333L354.667 62.5833Z" stroke="#1362FB" stroke-width="1.7" stroke-linecap="round" stroke-linejoin="round"/>
<path d="M354.667 62.5833V67.3333H359.667" stroke="#1362FB" stroke-width="1.7" stroke-linecap="round" stroke-linejoin="round"/>
<path d="M356.333 71.2917H349.667" stroke="#1362FB" stroke-width="1.7" stroke-linecap="round" stroke-linejoin="round"/>
<path d="M356.333 74.4583H349.667" stroke="#1362FB" stroke-width="1.7" stroke-linecap="round" stroke-linejoin="round"/>
<path d="M351.333 68.125H350.5H349.667" stroke="#1362FB" stroke-width="1.7" stroke-linecap="round" stroke-linejoin="round"/>
<path d="M367.972 71.5815C368.007 72.0105 368.104 72.3593 368.264 72.628C368.429 72.8967 368.639 73.0938 368.895 73.2195C369.151 73.3452 369.434 73.408 369.746 73.408C370.076 73.408 370.386 73.356 370.676 73.252C370.966 73.148 371.252 73.0028 371.534 72.8165L372.249 73.798C371.928 74.0667 371.545 74.2833 371.098 74.448C370.656 74.6127 370.169 74.695 369.636 74.695C368.891 74.695 368.262 74.5412 367.751 74.2335C367.244 73.9258 366.86 73.499 366.6 72.953C366.34 72.407 366.21 71.7787 366.21 71.068C366.21 70.3833 366.338 69.7658 366.594 69.2155C366.85 68.6652 367.218 68.2297 367.699 67.909C368.18 67.584 368.761 67.4215 369.441 67.4215C370.074 67.4215 370.62 67.5602 371.079 67.8375C371.538 68.1148 371.894 68.5135 372.145 69.0335C372.396 69.5492 372.522 70.171 372.522 70.899C372.522 71.016 372.518 71.1352 372.509 71.2565C372.505 71.3778 372.498 71.4862 372.489 71.5815H367.972ZM369.447 68.6305C369.031 68.6305 368.689 68.78 368.42 69.079C368.156 69.3737 368 69.8417 367.952 70.483H370.851C370.843 69.9023 370.721 69.4495 370.487 69.1245C370.258 68.7952 369.911 68.6305 369.447 68.6305ZM374.155 71.6335V70.2685H379.641V71.6335H374.155ZM385.538 67.6165V73.2845H387.351V74.5H381.807V73.2845H383.822V68.832H381.872V67.6165H385.538ZM384.426 64.1455C384.743 64.1455 384.998 64.243 385.193 64.438C385.393 64.633 385.492 64.8757 385.492 65.166C385.492 65.4563 385.393 65.7012 385.193 65.9005C384.998 66.0955 384.743 66.193 384.426 66.193C384.11 66.193 383.852 66.0955 383.653 65.9005C383.453 65.7012 383.354 65.4563 383.354 65.166C383.354 64.8757 383.453 64.633 383.653 64.438C383.852 64.243 384.11 64.1455 384.426 64.1455ZM389.114 74.5V67.6165H390.609L390.733 68.468C391.027 68.1213 391.359 67.8613 391.727 67.688C392.095 67.5103 392.492 67.4215 392.917 67.4215C393.536 67.4215 394.009 67.6013 394.334 67.961C394.659 68.3163 394.821 68.8168 394.821 69.4625V74.5H393.105V70.132C393.105 69.7853 393.083 69.508 393.04 69.3C392.997 69.0877 392.914 68.936 392.793 68.845C392.672 68.7497 392.496 68.702 392.267 68.702C392.08 68.702 391.9 68.7432 391.727 68.8255C391.558 68.9078 391.398 69.0183 391.246 69.157C391.099 69.2957 390.96 69.4495 390.83 69.6185V74.5H389.114ZM402.883 67.6165L400.517 74.5H398.502L396.123 67.6165H397.969L399.535 73.1285L401.134 67.6165H402.883ZM407.044 67.4215C407.729 67.4215 408.309 67.571 408.786 67.87C409.263 68.169 409.624 68.5915 409.871 69.1375C410.123 69.6792 410.248 70.314 410.248 71.042C410.248 71.7873 410.123 72.433 409.871 72.979C409.62 73.525 409.256 73.9475 408.779 74.2465C408.303 74.5455 407.722 74.695 407.037 74.695C406.357 74.695 405.776 74.5498 405.295 74.2595C404.819 73.9648 404.455 73.5467 404.203 73.005C403.952 72.459 403.826 71.809 403.826 71.055C403.826 70.3357 403.952 69.703 404.203 69.157C404.455 68.611 404.821 68.1863 405.302 67.883C405.783 67.5753 406.364 67.4215 407.044 67.4215ZM407.044 68.715C406.563 68.715 406.203 68.9035 405.965 69.2805C405.731 69.6575 405.614 70.249 405.614 71.055C405.614 71.8697 405.731 72.4655 405.965 72.8425C406.199 73.2152 406.556 73.4015 407.037 73.4015C407.518 73.4015 407.876 73.2152 408.11 72.8425C408.344 72.4655 408.461 71.8653 408.461 71.042C408.461 70.2403 408.344 69.6532 408.11 69.2805C407.876 68.9035 407.521 68.715 407.044 68.715ZM415.677 67.6165V73.2845H417.491V74.5H411.946V73.2845H413.961V68.832H412.011V67.6165H415.677ZM414.566 64.1455C414.882 64.1455 415.138 64.243 415.333 64.438C415.532 64.633 415.632 64.8757 415.632 65.166C415.632 65.4563 415.532 65.7012 415.333 65.9005C415.138 66.0955 414.882 66.193 414.566 66.193C414.25 66.193 413.992 66.0955 413.792 65.9005C413.593 65.7012 413.493 65.4563 413.493 65.166C413.493 64.8757 413.593 64.633 413.792 64.438C413.992 64.243 414.25 64.1455 414.566 64.1455ZM422.718 73.317C423.022 73.317 423.305 73.2607 423.57 73.148C423.838 73.0353 424.096 72.8923 424.343 72.719L425.123 73.8175C424.82 74.0732 424.454 74.2833 424.025 74.448C423.596 74.6127 423.136 74.695 422.647 74.695C421.927 74.695 421.31 74.5455 420.794 74.2465C420.283 73.9432 419.889 73.5228 419.611 72.9855C419.338 72.4438 419.202 71.8155 419.202 71.1005C419.202 70.3942 419.34 69.7637 419.618 69.209C419.899 68.65 420.298 68.2123 420.814 67.896C421.334 67.5797 421.953 67.4215 422.673 67.4215C423.167 67.4215 423.613 67.493 424.012 67.636C424.415 67.7747 424.783 67.9827 425.117 68.26L424.356 69.313C424.101 69.1353 423.836 69.001 423.563 68.91C423.295 68.8147 423.015 68.767 422.725 68.767C422.218 68.767 421.804 68.9512 421.483 69.3195C421.167 69.6835 421.009 70.2772 421.009 71.1005C421.009 71.6422 421.082 72.0755 421.23 72.4005C421.381 72.7255 421.585 72.9595 421.841 73.1025C422.101 73.2455 422.393 73.317 422.718 73.317ZM428.251 71.5815C428.286 72.0105 428.383 72.3593 428.544 72.628C428.708 72.8967 428.919 73.0938 429.174 73.2195C429.43 73.3452 429.714 73.408 430.026 73.408C430.355 73.408 430.665 73.356 430.955 73.252C431.246 73.148 431.532 73.0028 431.813 72.8165L432.528 73.798C432.208 74.0667 431.824 74.2833 431.378 74.448C430.936 74.6127 430.448 74.695 429.915 74.695C429.17 74.695 428.542 74.5412 428.03 74.2335C427.523 73.9258 427.14 73.499 426.88 72.953C426.62 72.407 426.49 71.7787 426.49 71.068C426.49 70.3833 426.618 69.7658 426.873 69.2155C427.129 68.6652 427.497 68.2297 427.978 67.909C428.459 67.584 429.04 67.4215 429.72 67.4215C430.353 67.4215 430.899 67.5602 431.358 67.8375C431.818 68.1148 432.173 68.5135 432.424 69.0335C432.676 69.5492 432.801 70.171 432.801 70.899C432.801 71.016 432.797 71.1352 432.788 71.2565C432.784 71.3778 432.777 71.4862 432.769 71.5815H428.251ZM429.727 68.6305C429.311 68.6305 428.968 68.78 428.7 69.079C428.435 69.3737 428.279 69.8417 428.232 70.483H431.131C431.122 69.9023 431.001 69.4495 430.767 69.1245C430.537 68.7952 430.19 68.6305 429.727 68.6305Z" fill="#1362FB"/>
<path d="M447.853 69.6848C448.414 70.0835 448.414 70.9165 447.853 71.3152L440.829 76.306C440.167 76.7765 439.25 76.3031 439.25 75.4909L439.25 65.5091C439.25 64.6969 440.167 64.2235 440.829 64.694L447.853 69.6848Z" fill="#367AFC"/>
<path d="M328.981 151V152.699H326V151H328.981ZM334.944 151V152.699H331.963V151H334.944ZM340.907 151V152.699H337.926V151H340.907ZM346.87 151V152.699H343.889V151H346.87ZM442.277 151V152.699H439.296V151H442.277ZM448.24 151V152.699H445.259V151H448.24ZM454.203 151V152.699H451.222V151H454.203ZM460.166 151V152.699H457.185V151H460.166ZM466.129 151V152.699H463.147V151H466.129ZM472.178 151V152.699H469.11V151H472.178ZM478.055 151V152.699H475.073V151H478.055Z" fill="#B266FF"/>
<path d="M352.981 152.699V151H350V152.699H352.981Z" fill="#B266FF"/>
<path d="M134.304 151V152.699H131.322V151H134.304ZM140.267 151V152.699H137.285V151H140.267ZM146.229 151V152.699H143.248V151H146.229ZM152 151V152.699H149.019V151H152ZM241.637 151V152.699H238.655V151H241.637ZM247.6 151V152.699H244.618V151H247.6ZM253.562 151V152.699H250.581V151H253.562ZM259.525 151V152.699H256.544V151H259.525ZM265.488 151V152.699H262.507V151H265.488ZM271.451 151V152.699H268.47V151H271.451ZM277.5 151V152.699H274.433V151H277.5ZM283.377 151V152.699H280.396V151H283.377Z" fill="#B266FF"/>
<path d="M155.136 151.873C154.579 151.474 154.579 150.646 155.136 150.247L162.168 145.212C162.83 144.739 163.75 145.212 163.75 146.026L163.75 156.094C163.75 156.908 162.83 157.381 162.168 156.908L155.136 151.873Z" fill="#9833FF"/>
<g clip-path="url(#clip0_2_3791)">
<path d="M183.667 150.447V151.06C183.666 152.498 183.2 153.896 182.339 155.048C181.479 156.199 180.269 157.042 178.89 157.449C177.512 157.857 176.038 157.808 174.69 157.31C173.341 156.812 172.19 155.891 171.407 154.685C170.625 153.479 170.253 152.052 170.348 150.618C170.442 149.183 170.998 147.818 171.932 146.725C172.866 145.632 174.128 144.87 175.531 144.553C176.933 144.237 178.4 144.382 179.713 144.967" stroke="#870FFF" stroke-width="1.7" stroke-linecap="round" stroke-linejoin="round"/>
<path d="M183.667 145.727L177 152.4L175 150.4" stroke="#870FFF" stroke-width="1.7" stroke-linecap="round" stroke-linejoin="round"/>
</g>
<path d="M190.781 153.987C191.184 153.987 191.507 153.918 191.75 153.779C191.997 153.636 192.12 153.437 192.12 153.181C192.12 153.012 192.079 152.869 191.997 152.752C191.919 152.635 191.763 152.527 191.529 152.427C191.295 152.323 190.944 152.209 190.476 152.083C190.034 151.97 189.646 151.832 189.312 151.667C188.983 151.498 188.725 151.281 188.539 151.017C188.357 150.753 188.266 150.419 188.266 150.016C188.266 149.613 188.378 149.26 188.604 148.956C188.829 148.649 189.154 148.41 189.579 148.241C190.008 148.068 190.523 147.981 191.126 147.981C191.715 147.981 192.231 148.059 192.673 148.215C193.115 148.367 193.494 148.558 193.81 148.787L193.108 149.834C192.831 149.656 192.53 149.513 192.205 149.405C191.884 149.292 191.537 149.236 191.165 149.236C190.762 149.236 190.467 149.294 190.281 149.411C190.099 149.528 190.008 149.691 190.008 149.899C190.008 150.046 190.053 150.172 190.144 150.276C190.24 150.376 190.409 150.473 190.651 150.568C190.898 150.659 191.249 150.77 191.704 150.9C192.151 151.021 192.538 151.164 192.868 151.329C193.201 151.494 193.459 151.712 193.641 151.985C193.823 152.258 193.914 152.616 193.914 153.058C193.914 153.556 193.769 153.968 193.479 154.293C193.188 154.618 192.805 154.861 192.328 155.021C191.856 155.177 191.342 155.255 190.788 155.255C190.138 155.255 189.57 155.162 189.085 154.975C188.599 154.789 188.188 154.549 187.85 154.254L188.74 153.253C189.009 153.465 189.314 153.641 189.657 153.779C190.003 153.918 190.378 153.987 190.781 153.987ZM201.898 154.676C201.642 154.845 201.332 154.984 200.968 155.092C200.604 155.201 200.21 155.255 199.785 155.255C198.944 155.255 198.312 155.038 197.887 154.605C197.462 154.167 197.25 153.587 197.25 152.863V149.392H195.755V148.176H197.25V146.662L198.966 146.454V148.176H201.241L201.066 149.392H198.966V152.856C198.966 153.212 199.053 153.472 199.226 153.636C199.399 153.801 199.679 153.883 200.065 153.883C200.312 153.883 200.537 153.855 200.741 153.799C200.949 153.738 201.137 153.662 201.306 153.571L201.898 154.676ZM209.244 153.246C209.244 153.511 209.283 153.704 209.361 153.825C209.439 153.942 209.565 154.031 209.738 154.091L209.368 155.242C208.999 155.203 208.685 155.112 208.425 154.969C208.169 154.822 207.972 154.603 207.834 154.312C207.574 154.629 207.244 154.865 206.846 155.021C206.451 155.177 206.037 155.255 205.604 155.255C204.902 155.255 204.345 155.056 203.934 154.657C203.522 154.258 203.316 153.74 203.316 153.103C203.316 152.371 203.602 151.808 204.174 151.413C204.75 151.015 205.565 150.815 206.618 150.815H207.58V150.445C207.58 150.038 207.454 149.743 207.203 149.561C206.952 149.375 206.59 149.281 206.118 149.281C205.897 149.281 205.619 149.312 205.286 149.372C204.956 149.429 204.616 149.518 204.265 149.639L203.856 148.462C204.293 148.298 204.733 148.176 205.175 148.098C205.621 148.02 206.027 147.981 206.391 147.981C207.357 147.981 208.074 148.187 208.542 148.599C209.01 149.006 209.244 149.585 209.244 150.334V153.246ZM206.163 154.013C206.423 154.013 206.685 153.94 206.95 153.792C207.218 153.645 207.428 153.439 207.58 153.175V151.836H206.904C206.267 151.836 205.806 151.938 205.52 152.141C205.238 152.345 205.097 152.633 205.097 153.006C205.097 153.327 205.188 153.576 205.37 153.753C205.552 153.927 205.816 154.013 206.163 154.013ZM217.488 154.676C217.232 154.845 216.922 154.984 216.558 155.092C216.194 155.201 215.8 155.255 215.375 155.255C214.534 155.255 213.902 155.038 213.477 154.605C213.052 154.167 212.84 153.587 212.84 152.863V149.392H211.345V148.176H212.84V146.662L214.556 146.454V148.176H216.831L216.656 149.392H214.556V152.856C214.556 153.212 214.643 153.472 214.816 153.636C214.989 153.801 215.269 153.883 215.655 153.883C215.902 153.883 216.127 153.855 216.331 153.799C216.539 153.738 216.727 153.662 216.896 153.571L217.488 154.676ZM221.057 148.176V152.947C221.057 153.32 221.131 153.582 221.278 153.734C221.426 153.886 221.64 153.961 221.922 153.961C222.191 153.961 222.453 153.881 222.708 153.721C222.964 153.556 223.172 153.348 223.332 153.097V148.176H225.048V155.06H223.553L223.462 154.215C223.215 154.553 222.899 154.811 222.513 154.988C222.128 155.166 221.729 155.255 221.317 155.255C220.654 155.255 220.158 155.069 219.829 154.696C219.504 154.319 219.341 153.805 219.341 153.155V148.176H221.057ZM229.756 153.987C230.159 153.987 230.482 153.918 230.724 153.779C230.971 153.636 231.095 153.437 231.095 153.181C231.095 153.012 231.054 152.869 230.971 152.752C230.893 152.635 230.737 152.527 230.503 152.427C230.269 152.323 229.918 152.209 229.45 152.083C229.008 151.97 228.621 151.832 228.287 151.667C227.958 151.498 227.7 151.281 227.513 151.017C227.331 150.753 227.24 150.419 227.24 150.016C227.24 149.613 227.353 149.26 227.578 148.956C227.804 148.649 228.129 148.41 228.553 148.241C228.982 148.068 229.498 147.981 230.1 147.981C230.69 147.981 231.205 148.059 231.647 148.215C232.089 148.367 232.469 148.558 232.785 148.787L232.083 149.834C231.806 149.656 231.504 149.513 231.179 149.405C230.859 149.292 230.512 149.236 230.139 149.236C229.736 149.236 229.442 149.294 229.255 149.411C229.073 149.528 228.982 149.691 228.982 149.899C228.982 150.046 229.028 150.172 229.119 150.276C229.214 150.376 229.383 150.473 229.626 150.568C229.873 150.659 230.224 150.77 230.679 150.9C231.125 151.021 231.513 151.164 231.842 151.329C232.176 151.494 232.434 151.712 232.616 151.985C232.798 152.258 232.889 152.616 232.889 153.058C232.889 153.556 232.744 153.968 232.453 154.293C232.163 154.618 231.78 154.861 231.303 155.021C230.831 155.177 230.317 155.255 229.762 155.255C229.112 155.255 228.545 155.162 228.059 154.975C227.574 154.789 227.162 154.549 226.824 154.254L227.715 153.253C227.984 153.465 228.289 153.641 228.631 153.779C228.978 153.918 229.353 153.987 229.756 153.987Z" fill="#870FFF"/>
<path d="M356.136 151.873C355.579 151.474 355.579 150.646 356.136 150.247L363.168 145.212C363.83 144.739 364.75 145.212 364.75 146.026L364.75 156.094C364.75 156.908 363.83 157.381 363.168 156.908L356.136 151.873Z" fill="#9833FF"/>
<g clip-path="url(#clip1_2_3791)">
<path d="M385.583 150.447V151.06C385.583 152.498 385.088 153.896 384.173 155.048C383.259 156.199 381.973 157.042 380.508 157.449C379.044 157.857 377.478 157.808 376.045 157.31C374.613 156.812 373.389 155.891 372.558 154.685C371.726 153.479 371.332 152.052 371.432 150.618C371.533 149.183 372.123 147.818 373.116 146.725C374.108 145.632 375.449 144.87 376.939 144.553C378.429 144.237 379.988 144.382 381.383 144.967" stroke="#870FFF" stroke-width="1.7" stroke-linecap="round" stroke-linejoin="round"/>
<path d="M385.583 145.727L378.5 152.4L376.375 150.4" stroke="#870FFF" stroke-width="1.7" stroke-linecap="round" stroke-linejoin="round"/>
</g>
<path d="M392.781 153.987C393.184 153.987 393.507 153.918 393.75 153.779C393.997 153.636 394.12 153.437 394.12 153.181C394.12 153.012 394.079 152.869 393.997 152.752C393.919 152.635 393.763 152.527 393.529 152.427C393.295 152.323 392.944 152.209 392.476 152.083C392.034 151.97 391.646 151.832 391.312 151.667C390.983 151.498 390.725 151.281 390.539 151.017C390.357 150.753 390.266 150.419 390.266 150.016C390.266 149.613 390.378 149.26 390.604 148.956C390.829 148.649 391.154 148.41 391.579 148.241C392.008 148.068 392.523 147.981 393.126 147.981C393.715 147.981 394.231 148.059 394.673 148.215C395.115 148.367 395.494 148.558 395.81 148.787L395.108 149.834C394.831 149.656 394.53 149.513 394.205 149.405C393.884 149.292 393.537 149.236 393.165 149.236C392.762 149.236 392.467 149.294 392.281 149.411C392.099 149.528 392.008 149.691 392.008 149.899C392.008 150.046 392.053 150.172 392.144 150.276C392.24 150.376 392.409 150.473 392.651 150.568C392.898 150.659 393.249 150.77 393.704 150.9C394.151 151.021 394.538 151.164 394.868 151.329C395.201 151.494 395.459 151.712 395.641 151.985C395.823 152.258 395.914 152.616 395.914 153.058C395.914 153.556 395.769 153.968 395.479 154.293C395.188 154.618 394.805 154.861 394.328 155.021C393.856 155.177 393.342 155.255 392.788 155.255C392.138 155.255 391.57 155.162 391.085 154.975C390.599 154.789 390.188 154.549 389.85 154.254L390.74 153.253C391.009 153.465 391.314 153.641 391.657 153.779C392.003 153.918 392.378 153.987 392.781 153.987ZM403.898 154.676C403.642 154.845 403.332 154.984 402.968 155.092C402.604 155.201 402.21 155.255 401.785 155.255C400.944 155.255 400.312 155.038 399.887 154.605C399.462 154.167 399.25 153.587 399.25 152.863V149.392H397.755V148.176H399.25V146.662L400.966 146.454V148.176H403.241L403.066 149.392H400.966V152.856C400.966 153.212 401.053 153.472 401.226 153.636C401.399 153.801 401.679 153.883 402.065 153.883C402.312 153.883 402.537 153.855 402.741 153.799C402.949 153.738 403.137 153.662 403.306 153.571L403.898 154.676ZM411.244 153.246C411.244 153.511 411.283 153.704 411.361 153.825C411.439 153.942 411.565 154.031 411.738 154.091L411.368 155.242C410.999 155.203 410.685 155.112 410.425 154.969C410.169 154.822 409.972 154.603 409.834 154.312C409.574 154.629 409.244 154.865 408.846 155.021C408.451 155.177 408.037 155.255 407.604 155.255C406.902 155.255 406.345 155.056 405.934 154.657C405.522 154.258 405.316 153.74 405.316 153.103C405.316 152.371 405.602 151.808 406.174 151.413C406.75 151.015 407.565 150.815 408.618 150.815H409.58V150.445C409.58 150.038 409.454 149.743 409.203 149.561C408.952 149.375 408.59 149.281 408.118 149.281C407.897 149.281 407.619 149.312 407.286 149.372C406.956 149.429 406.616 149.518 406.265 149.639L405.856 148.462C406.293 148.298 406.733 148.176 407.175 148.098C407.621 148.02 408.027 147.981 408.391 147.981C409.357 147.981 410.074 148.187 410.542 148.599C411.01 149.006 411.244 149.585 411.244 150.334V153.246ZM408.163 154.013C408.423 154.013 408.685 153.94 408.95 153.792C409.218 153.645 409.428 153.439 409.58 153.175V151.836H408.904C408.267 151.836 407.806 151.938 407.52 152.141C407.238 152.345 407.097 152.633 407.097 153.006C407.097 153.327 407.188 153.576 407.37 153.753C407.552 153.927 407.816 154.013 408.163 154.013ZM419.488 154.676C419.232 154.845 418.922 154.984 418.558 155.092C418.194 155.201 417.8 155.255 417.375 155.255C416.534 155.255 415.902 155.038 415.477 154.605C415.052 154.167 414.84 153.587 414.84 152.863V149.392H413.345V148.176H414.84V146.662L416.556 146.454V148.176H418.831L418.656 149.392H416.556V152.856C416.556 153.212 416.643 153.472 416.816 153.636C416.989 153.801 417.269 153.883 417.655 153.883C417.902 153.883 418.127 153.855 418.331 153.799C418.539 153.738 418.727 153.662 418.896 153.571L419.488 154.676ZM423.057 148.176V152.947C423.057 153.32 423.131 153.582 423.278 153.734C423.426 153.886 423.64 153.961 423.922 153.961C424.191 153.961 424.453 153.881 424.708 153.721C424.964 153.556 425.172 153.348 425.332 153.097V148.176H427.048V155.06H425.553L425.462 154.215C425.215 154.553 424.899 154.811 424.513 154.988C424.128 155.166 423.729 155.255 423.317 155.255C422.654 155.255 422.158 155.069 421.829 154.696C421.504 154.319 421.341 153.805 421.341 153.155V148.176H423.057ZM431.756 153.987C432.159 153.987 432.482 153.918 432.724 153.779C432.971 153.636 433.095 153.437 433.095 153.181C433.095 153.012 433.054 152.869 432.971 152.752C432.893 152.635 432.737 152.527 432.503 152.427C432.269 152.323 431.918 152.209 431.45 152.083C431.008 151.97 430.621 151.832 430.287 151.667C429.958 151.498 429.7 151.281 429.513 151.017C429.331 150.753 429.24 150.419 429.24 150.016C429.24 149.613 429.353 149.26 429.578 148.956C429.804 148.649 430.129 148.41 430.553 148.241C430.982 148.068 431.498 147.981 432.1 147.981C432.69 147.981 433.205 148.059 433.647 148.215C434.089 148.367 434.469 148.558 434.785 148.787L434.083 149.834C433.806 149.656 433.504 149.513 433.179 149.405C432.859 149.292 432.512 149.236 432.139 149.236C431.736 149.236 431.442 149.294 431.255 149.411C431.073 149.528 430.982 149.691 430.982 149.899C430.982 150.046 431.028 150.172 431.119 150.276C431.214 150.376 431.383 150.473 431.626 150.568C431.873 150.659 432.224 150.77 432.679 150.9C433.125 151.021 433.513 151.164 433.842 151.329C434.176 151.494 434.434 151.712 434.616 151.985C434.798 152.258 434.889 152.616 434.889 153.058C434.889 153.556 434.744 153.968 434.453 154.293C434.163 154.618 433.78 154.861 433.303 155.021C432.831 155.177 432.317 155.255 431.762 155.255C431.112 155.255 430.545 155.162 430.059 154.975C429.574 154.789 429.162 154.549 428.824 154.254L429.715 153.253C429.984 153.465 430.289 153.641 430.631 153.779C430.978 153.918 431.353 153.987 431.756 153.987Z" fill="#870FFF"/>
<path d="M310.815 111.853C310.417 112.414 309.583 112.414 309.185 111.853L304.194 104.829C303.723 104.167 304.197 103.25 305.009 103.25L314.991 103.25C315.803 103.25 316.277 104.167 315.806 104.829L310.815 111.853Z" fill="#B266FF"/>
<path d="M300.185 82.1472C300.583 81.5861 301.417 81.5861 301.815 82.1472L306.806 89.1708C307.277 89.8329 306.803 90.75 305.991 90.75L296.009 90.75C295.197 90.75 294.723 89.8329 295.194 89.1708L300.185 82.1472Z" fill="#699BFC"/>
<path d="M511.665 152.853C511.266 153.414 510.433 153.414 510.034 152.853L505.044 145.829C504.573 145.167 505.046 144.25 505.859 144.25L515.84 144.25C516.653 144.25 517.126 145.167 516.656 145.829L511.665 152.853Z" fill="#B266FF"/>
<g filter="url(#filter0_dddd_2_3791)">
<g clip-path="url(#clip2_2_3791)">
<rect x="259" y="31" width="68" height="158" rx="7" fill="#1362FB" stroke="#1362FB" stroke-width="2"/>
<path d="M283.761 93.4792C283.762 93.3821 283.794 93.2875 283.853 93.209C283.911 93.1305 283.994 93.072 284.089 93.0418C284.195 92.9992 284.312 92.9891 284.424 93.0129C284.536 93.0366 284.638 93.0931 284.716 93.1748L291.626 100.655H283.761V93.4792Z" fill="white"/>
<path d="M276.487 101.74H291.507L283.779 109.123L283.621 109.273C283.448 109.455 283.292 109.651 283.156 109.861C282.851 110.335 282.653 110.867 282.577 111.421C282.551 111.59 282.538 111.761 282.537 111.932V119.241H276.484C276.102 119.253 275.732 119.116 275.454 118.862C275.175 118.609 275.012 118.258 275 117.887V103.094C275.006 102.91 275.049 102.729 275.127 102.562C275.205 102.394 275.317 102.243 275.455 102.118C275.593 101.992 275.755 101.894 275.932 101.829C276.109 101.764 276.298 101.734 276.487 101.74Z" fill="white"/>
<path d="M283.837 111.32C283.947 110.868 284.174 110.452 284.496 110.109L292.386 102.576V119.241C292.13 119.507 284.925 127.383 284.464 127.856C284.412 127.916 284.344 127.961 284.266 127.984C284.188 128.006 284.106 128.006 284.028 127.983C283.951 127.959 283.883 127.914 283.832 127.853C283.781 127.792 283.75 127.717 283.743 127.639C283.743 123.657 283.743 116.771 283.743 112.81C283.72 112.312 283.752 111.812 283.837 111.32Z" fill="white"/>
<path d="M302.249 93.4792C302.249 93.3816 302.216 93.2868 302.157 93.2082C302.097 93.1296 302.014 93.0714 301.918 93.0418C301.812 92.9997 301.695 92.9899 301.583 93.0136C301.472 93.0374 301.37 93.0936 301.291 93.1748L294.388 100.655H302.257L302.249 93.4792Z" fill="white"/>
<path d="M309.513 101.74H294.518L302.249 109.123L302.404 109.273C302.578 109.455 302.733 109.651 302.869 109.861C303.177 110.334 303.376 110.866 303.452 111.421C303.476 111.591 303.489 111.761 303.492 111.932V119.241H309.513C309.702 119.247 309.89 119.217 310.068 119.152C310.245 119.088 310.407 118.99 310.545 118.864C310.683 118.738 310.795 118.587 310.873 118.419C310.951 118.252 310.994 118.071 311 117.887V103.094C310.994 102.91 310.951 102.729 310.873 102.562C310.795 102.394 310.683 102.243 310.545 102.118C310.407 101.992 310.245 101.894 310.068 101.829C309.89 101.764 309.702 101.734 309.513 101.74Z" fill="white"/>
<path d="M302.17 111.32C302.06 110.868 301.833 110.452 301.511 110.109L293.625 102.576V119.241C293.877 119.507 301.086 127.383 301.547 127.856C301.599 127.915 301.668 127.958 301.745 127.979C301.822 128.001 301.904 128 301.981 127.977C302.057 127.954 302.125 127.91 302.176 127.85C302.227 127.789 302.259 127.716 302.267 127.639C302.267 123.657 302.267 116.771 302.267 112.81C302.289 112.312 302.257 111.812 302.17 111.32V111.32Z" fill="white"/>
</g>
</g>
<g filter="url(#filter1_dddd_2_3791)">
<rect x="30" y="30" width="102" height="160" rx="4" fill="white"/>
<rect x="30.5" y="30.5" width="101" height="159" rx="3.5" stroke="white"/>
<g clip-path="url(#clip3_2_3791)">
<path fill-rule="evenodd" clip-rule="evenodd" d="M77.1569 97.5C76.0093 97.5 75.262 97.8832 74.5948 99.1695L71.5523 105.054V99.8263C71.5523 98.2663 70.8317 97.5 69.4973 97.5C68.1629 97.5 67.6024 97.9653 66.9352 99.2789L64.0528 105.054V99.8811C64.0528 98.2116 63.3856 97.5 61.7576 97.5H58.4483C57.1939 97.5 56.5 98.1021 56.5 99.1968C56.5 100.292 57.1672 100.948 58.3949 100.948H59.756V107.544C59.756 109.405 60.9837 110.5 62.7451 110.5C64.5065 110.5 65.3072 109.788 66.1879 108.119L68.1095 104.424V107.544C68.1095 109.378 69.2838 110.5 71.0719 110.5C72.86 110.5 73.5272 109.871 74.5414 108.119L78.9717 100.456C79.9325 98.7863 79.2652 97.5 77.1302 97.5C77.1302 97.5 77.1302 97.5 77.1569 97.5Z" fill="#254856"/>
<path fill-rule="evenodd" clip-rule="evenodd" d="M85.4838 97.5C81.8541 97.5 79.1052 100.264 79.1052 104.014C79.1052 107.763 81.8808 110.5 85.4838 110.5C89.0867 110.5 91.8356 107.736 91.8623 104.014C91.8623 100.264 89.0867 97.5 85.4838 97.5ZM85.4838 106.504C84.1227 106.504 83.1886 105.464 83.1886 104.014C83.1886 102.563 84.1227 101.496 85.4838 101.496C86.8449 101.496 87.779 102.563 87.779 104.014C87.779 105.464 86.8716 106.504 85.4838 106.504Z" fill="#254856"/>
<path fill-rule="evenodd" clip-rule="evenodd" d="M99.1215 97.5C95.5185 97.5 92.7429 100.264 92.7429 104.014C92.7429 107.763 95.5185 110.5 99.1215 110.5C102.724 110.5 105.5 107.736 105.5 104.014C105.5 100.292 102.724 97.5 99.1215 97.5ZM99.1215 106.504C97.7337 106.504 96.8529 105.464 96.8529 104.014C96.8529 102.563 97.7603 101.496 99.1215 101.496C100.483 101.496 101.417 102.563 101.417 104.014C101.417 105.464 100.509 106.504 99.1215 106.504Z" fill="#254856"/>
</g>
<path d="M45.9019 118.53L44.6604 127.5H42.8989L42.0149 120.863L41.0984 127.5H39.2979L38.1539 118.53H39.6099L40.3184 126.044L41.2674 119.57H42.8209L43.7179 126.044L44.5564 118.53H45.9019ZM49.8294 120.454C50.501 120.454 51.0665 120.603 51.5259 120.902C51.9852 121.201 52.3319 121.62 52.5659 122.157C52.8042 122.694 52.9234 123.327 52.9234 124.055C52.9234 124.779 52.802 125.413 52.5594 125.959C52.321 126.501 51.97 126.924 51.5064 127.227C51.047 127.526 50.4859 127.676 49.8229 127.676C49.1599 127.676 48.5965 127.53 48.1329 127.24C47.6735 126.945 47.3225 126.527 47.0799 125.985C46.8415 125.444 46.7224 124.805 46.7224 124.068C46.7224 123.353 46.8415 122.725 47.0799 122.183C47.3225 121.641 47.6757 121.219 48.1394 120.915C48.603 120.608 49.1664 120.454 49.8294 120.454ZM49.8294 121.585C49.305 121.585 48.9107 121.786 48.6464 122.189C48.382 122.588 48.2499 123.214 48.2499 124.068C48.2499 124.917 48.3799 125.543 48.6399 125.946C48.9042 126.349 49.2985 126.551 49.8229 126.551C50.3472 126.551 50.7394 126.349 50.9994 125.946C51.2637 125.543 51.3959 124.913 51.3959 124.055C51.3959 123.21 51.2659 122.588 51.0059 122.189C50.7459 121.786 50.3537 121.585 49.8294 121.585ZM57.6243 120.454C58.2959 120.454 58.8614 120.603 59.3208 120.902C59.7801 121.201 60.1268 121.62 60.3608 122.157C60.5991 122.694 60.7183 123.327 60.7183 124.055C60.7183 124.779 60.5969 125.413 60.3543 125.959C60.1159 126.501 59.7649 126.924 59.3013 127.227C58.8419 127.526 58.2808 127.676 57.6178 127.676C56.9548 127.676 56.3914 127.53 55.9278 127.24C55.4684 126.945 55.1174 126.527 54.8748 125.985C54.6364 125.444 54.5173 124.805 54.5173 124.068C54.5173 123.353 54.6364 122.725 54.8748 122.183C55.1174 121.641 55.4706 121.219 55.9343 120.915C56.3979 120.608 56.9613 120.454 57.6243 120.454ZM57.6243 121.585C57.0999 121.585 56.7056 121.786 56.4413 122.189C56.1769 122.588 56.0448 123.214 56.0448 124.068C56.0448 124.917 56.1748 125.543 56.4348 125.946C56.6991 126.349 57.0934 126.551 57.6178 126.551C58.1421 126.551 58.5343 126.349 58.7943 125.946C59.0586 125.543 59.1908 124.913 59.1908 124.055C59.1908 123.21 59.0608 122.588 58.8008 122.189C58.5408 121.786 58.1486 121.585 57.6243 121.585ZM66.1667 118.348C66.7734 118.348 67.2847 118.428 67.7007 118.588C68.121 118.744 68.511 118.97 68.8707 119.264L68.0842 120.2C67.8155 119.975 67.5274 119.808 67.2197 119.7C66.912 119.592 66.5849 119.537 66.2382 119.537C65.7919 119.537 65.3802 119.65 65.0032 119.875C64.6262 120.101 64.3229 120.467 64.0932 120.974C63.8679 121.481 63.7552 122.157 63.7552 123.002C63.7552 123.83 63.8635 124.497 64.0802 125.004C64.2969 125.511 64.5937 125.879 64.9707 126.109C65.3477 126.339 65.7702 126.453 66.2382 126.453C66.7192 126.453 67.1179 126.375 67.4342 126.219C67.7505 126.059 68.03 125.879 68.2727 125.68L69.0007 126.609C68.7017 126.9 68.3225 127.151 67.8632 127.363C67.4039 127.571 66.8449 127.676 66.1862 127.676C65.4279 127.676 64.7454 127.498 64.1387 127.142C63.5364 126.783 63.0597 126.256 62.7087 125.563C62.362 124.87 62.1887 124.016 62.1887 123.002C62.1887 121.997 62.3685 121.149 62.7282 120.46C63.0879 119.767 63.5689 119.243 64.1712 118.887C64.7735 118.528 65.4387 118.348 66.1667 118.348ZM73.2141 120.454C73.8858 120.454 74.4513 120.603 74.9106 120.902C75.37 121.201 75.7166 121.62 75.9506 122.157C76.189 122.694 76.3081 123.327 76.3081 124.055C76.3081 124.779 76.1868 125.413 75.9441 125.959C75.7058 126.501 75.3548 126.924 74.8911 127.227C74.4318 127.526 73.8706 127.676 73.2076 127.676C72.5446 127.676 71.9813 127.53 71.5176 127.24C71.0583 126.945 70.7073 126.527 70.4646 125.985C70.2263 125.444 70.1071 124.805 70.1071 124.068C70.1071 123.353 70.2263 122.725 70.4646 122.183C70.7073 121.641 71.0605 121.219 71.5241 120.915C71.9878 120.608 72.5511 120.454 73.2141 120.454ZM73.2141 121.585C72.6898 121.585 72.2955 121.786 72.0311 122.189C71.7668 122.588 71.6346 123.214 71.6346 124.068C71.6346 124.917 71.7646 125.543 72.0246 125.946C72.289 126.349 72.6833 126.551 73.2076 126.551C73.732 126.551 74.1241 126.349 74.3841 125.946C74.6485 125.543 74.7806 124.913 74.7806 124.055C74.7806 123.21 74.6506 122.588 74.3906 122.189C74.1306 121.786 73.7385 121.585 73.2141 121.585ZM82.9915 120.454C83.2515 120.454 83.4855 120.51 83.6935 120.623C83.9015 120.736 84.064 120.933 84.181 121.214C84.3024 121.496 84.363 121.89 84.363 122.397V127.5H83.0695V122.599C83.0695 122.239 83.0435 121.981 82.9915 121.825C82.9439 121.669 82.816 121.591 82.608 121.591C82.4434 121.591 82.2765 121.643 82.1075 121.747C81.9385 121.847 81.7674 122.02 81.594 122.267V127.5H80.4175V122.599C80.4175 122.239 80.3915 121.981 80.3395 121.825C80.2919 121.669 80.164 121.591 79.956 121.591C79.787 121.591 79.618 121.643 79.449 121.747C79.2844 121.847 79.1154 122.02 78.942 122.267V127.5H77.642V120.636H78.7405L78.838 121.377C79.033 121.104 79.2454 120.883 79.475 120.714C79.7047 120.541 79.982 120.454 80.307 120.454C80.567 120.454 80.8032 120.519 81.0155 120.649C81.2279 120.779 81.3839 121.006 81.4835 121.331C81.6742 121.071 81.8909 120.861 82.1335 120.701C82.3762 120.536 82.6622 120.454 82.9915 120.454ZM90.7865 120.454C91.0465 120.454 91.2805 120.51 91.4885 120.623C91.6965 120.736 91.859 120.933 91.976 121.214C92.0973 121.496 92.158 121.89 92.158 122.397V127.5H90.8645V122.599C90.8645 122.239 90.8385 121.981 90.7865 121.825C90.7388 121.669 90.611 121.591 90.403 121.591C90.2383 121.591 90.0715 121.643 89.9025 121.747C89.7335 121.847 89.5623 122.02 89.389 122.267V127.5H88.2125V122.599C88.2125 122.239 88.1865 121.981 88.1345 121.825C88.0868 121.669 87.959 121.591 87.751 121.591C87.582 121.591 87.413 121.643 87.244 121.747C87.0793 121.847 86.9103 122.02 86.737 122.267V127.5H85.437V120.636H86.5355L86.633 121.377C86.828 121.104 87.0403 120.883 87.27 120.714C87.4996 120.541 87.777 120.454 88.102 120.454C88.362 120.454 88.5981 120.519 88.8105 120.649C89.0228 120.779 89.1788 121.006 89.2785 121.331C89.4691 121.071 89.6858 120.861 89.9285 120.701C90.1711 120.536 90.4571 120.454 90.7865 120.454ZM95.0584 124.536C95.0887 125.004 95.1884 125.387 95.3574 125.686C95.5264 125.981 95.7474 126.198 96.0204 126.336C96.2977 126.475 96.601 126.545 96.9304 126.545C97.2684 126.545 97.5804 126.492 97.8664 126.388C98.1524 126.284 98.4405 126.137 98.7309 125.946L99.3614 126.817C99.0407 127.077 98.6659 127.285 98.2369 127.441C97.8079 127.598 97.3485 127.676 96.8589 127.676C96.1482 127.676 95.5459 127.524 95.0519 127.22C94.5622 126.917 94.1895 126.495 93.9339 125.953C93.6782 125.411 93.5504 124.785 93.5504 124.074C93.5504 123.385 93.676 122.77 93.9274 122.228C94.1787 121.682 94.5384 121.251 95.0064 120.935C95.4744 120.614 96.0334 120.454 96.6834 120.454C97.2944 120.454 97.8187 120.593 98.2564 120.87C98.6984 121.147 99.0385 121.542 99.2769 122.053C99.5195 122.56 99.6409 123.171 99.6409 123.886C99.6409 124.003 99.6365 124.12 99.6279 124.237C99.6235 124.35 99.617 124.449 99.6084 124.536H95.0584ZM96.6964 121.533C96.2414 121.533 95.8644 121.695 95.5654 122.02C95.2707 122.345 95.0995 122.852 95.0519 123.541H98.2304C98.2174 122.896 98.0787 122.4 97.8144 122.053C97.5544 121.706 97.1817 121.533 96.6964 121.533ZM101.709 127.5V126.46H102.717V121.669H101.709V120.636H103.828L104.095 122.228C104.35 121.652 104.667 121.214 105.044 120.915C105.425 120.612 105.915 120.46 106.513 120.46C106.716 120.46 106.898 120.478 107.059 120.512C107.223 120.543 107.386 120.584 107.546 120.636L107.111 121.884C106.972 121.845 106.842 121.817 106.721 121.799C106.599 121.778 106.465 121.767 106.318 121.767C105.819 121.767 105.388 121.953 105.024 122.326C104.665 122.699 104.381 123.227 104.173 123.912V126.46H105.557V127.5H101.709ZM106.259 123.164V121.474L106.441 120.636H107.546L107.299 123.164H106.259ZM112.748 126.479C113.068 126.479 113.367 126.425 113.645 126.317C113.922 126.204 114.186 126.059 114.438 125.881L115.114 126.817C114.815 127.073 114.451 127.281 114.022 127.441C113.597 127.598 113.157 127.676 112.702 127.676C112 127.676 111.4 127.528 110.902 127.233C110.403 126.934 110.022 126.516 109.758 125.979C109.493 125.442 109.361 124.815 109.361 124.1C109.361 123.403 109.493 122.781 109.758 122.235C110.026 121.685 110.412 121.251 110.915 120.935C111.417 120.614 112.022 120.454 112.728 120.454C113.196 120.454 113.627 120.523 114.022 120.662C114.416 120.801 114.778 121.006 115.107 121.279L114.438 122.196C114.169 122.01 113.894 121.869 113.612 121.773C113.335 121.674 113.049 121.624 112.754 121.624C112.213 121.624 111.768 121.823 111.422 122.222C111.079 122.621 110.908 123.247 110.908 124.1C110.908 124.672 110.986 125.134 111.142 125.485C111.303 125.832 111.521 126.085 111.799 126.245C112.076 126.401 112.392 126.479 112.748 126.479ZM118.443 124.536C118.473 125.004 118.573 125.387 118.742 125.686C118.911 125.981 119.132 126.198 119.405 126.336C119.682 126.475 119.986 126.545 120.315 126.545C120.653 126.545 120.965 126.492 121.251 126.388C121.537 126.284 121.825 126.137 122.116 125.946L122.746 126.817C122.425 127.077 122.051 127.285 121.622 127.441C121.193 127.598 120.733 127.676 120.244 127.676C119.533 127.676 118.931 127.524 118.437 127.22C117.947 126.917 117.574 126.495 117.319 125.953C117.063 125.411 116.935 124.785 116.935 124.074C116.935 123.385 117.061 122.77 117.312 122.228C117.563 121.682 117.923 121.251 118.391 120.935C118.859 120.614 119.418 120.454 120.068 120.454C120.679 120.454 121.203 120.593 121.641 120.87C122.083 121.147 122.423 121.542 122.662 122.053C122.904 122.56 123.026 123.171 123.026 123.886C123.026 124.003 123.021 124.12 123.013 124.237C123.008 124.35 123.002 124.449 122.993 124.536H118.443ZM120.081 121.533C119.626 121.533 119.249 121.695 118.95 122.02C118.655 122.345 118.484 122.852 118.437 123.541H121.615C121.602 122.896 121.463 122.4 121.199 122.053C120.939 121.706 120.566 121.533 120.081 121.533Z" fill="#324B7C"/>
</g>
<g filter="url(#filter2_dddd_2_3791)">
<rect x="466" y="30" width="102" height="160" rx="4" fill="#F8F9FC"/>
<path d="M525.667 102.36V100.28C525.667 99.1767 525.21 98.1186 524.397 97.3384C523.585 96.5583 522.483 96.12 521.333 96.12H512.667C511.517 96.12 510.415 96.5583 509.602 97.3384C508.79 98.1186 508.333 99.1767 508.333 100.28V102.36" stroke="#324B7C" stroke-width="2.3" stroke-linecap="round" stroke-linejoin="round"/>
<path d="M517 91.96C519.393 91.96 521.333 90.0975 521.333 87.8C521.333 85.5025 519.393 83.64 517 83.64C514.607 83.64 512.667 85.5025 512.667 87.8C512.667 90.0975 514.607 91.96 517 91.96Z" stroke="#324B7C" stroke-width="2.3" stroke-linecap="round" stroke-linejoin="round"/>
<path d="M506.851 119.054V122.48H505.33V119.067L502.34 113.51H503.997L506.123 117.761L508.261 113.51H509.841L506.851 119.054ZM513.372 115.434C514.043 115.434 514.609 115.583 515.068 115.882C515.527 116.181 515.874 116.6 516.108 117.137C516.346 117.674 516.466 118.307 516.466 119.035C516.466 119.759 516.344 120.393 516.102 120.939C515.863 121.481 515.512 121.904 515.049 122.207C514.589 122.506 514.028 122.655 513.365 122.655C512.702 122.655 512.139 122.51 511.675 122.22C511.216 121.925 510.865 121.507 510.622 120.965C510.384 120.424 510.265 119.785 510.265 119.048C510.265 118.333 510.384 117.705 510.622 117.163C510.865 116.621 511.218 116.199 511.682 115.895C512.145 115.588 512.709 115.434 513.372 115.434ZM513.372 116.565C512.847 116.565 512.453 116.766 512.189 117.169C511.924 117.568 511.792 118.194 511.792 119.048C511.792 119.897 511.922 120.523 512.182 120.926C512.446 121.329 512.841 121.531 513.365 121.531C513.889 121.531 514.282 121.329 514.542 120.926C514.806 120.523 514.938 119.893 514.938 119.035C514.938 118.19 514.808 117.568 514.548 117.169C514.288 116.766 513.896 116.565 513.372 116.565ZM519.353 115.616V120.413C519.353 120.82 519.433 121.111 519.593 121.284C519.758 121.457 520.005 121.544 520.334 121.544C520.646 121.544 520.948 121.451 521.238 121.264C521.528 121.078 521.758 120.851 521.927 120.582V115.616H523.383V122.48H522.129L522.038 121.602C521.782 121.945 521.459 122.207 521.069 122.389C520.679 122.567 520.28 122.655 519.873 122.655C519.21 122.655 518.714 122.473 518.384 122.109C518.059 121.741 517.897 121.236 517.897 120.595V115.616H519.353ZM525.237 122.48V121.44H526.244V116.649H525.237V115.616H527.356L527.622 117.208C527.878 116.632 528.194 116.194 528.571 115.895C528.953 115.592 529.442 115.44 530.04 115.44C530.244 115.44 530.426 115.458 530.586 115.492C530.751 115.523 530.914 115.564 531.074 115.616L530.638 116.864C530.5 116.825 530.37 116.797 530.248 116.779C530.127 116.758 529.993 116.747 529.845 116.747C529.347 116.747 528.916 116.933 528.552 117.306C528.192 117.679 527.908 118.207 527.7 118.892V121.44H529.085V122.48H525.237ZM529.787 118.144V116.454L529.969 115.616H531.074L530.827 118.144H529.787ZM499.381 135.459C499.701 135.459 500 135.405 500.278 135.297C500.555 135.184 500.819 135.039 501.071 134.861L501.747 135.797C501.448 136.053 501.084 136.261 500.655 136.421C500.23 136.577 499.79 136.655 499.335 136.655C498.633 136.655 498.033 136.508 497.535 136.213C497.036 135.914 496.655 135.496 496.391 134.959C496.126 134.422 495.994 133.795 495.994 133.08C495.994 132.383 496.126 131.761 496.391 131.215C496.659 130.665 497.045 130.231 497.548 129.915C498.05 129.594 498.655 129.434 499.361 129.434C499.829 129.434 500.26 129.503 500.655 129.642C501.049 129.781 501.411 129.986 501.74 130.259L501.071 131.176C500.802 130.99 500.527 130.849 500.245 130.753C499.968 130.654 499.682 130.604 499.387 130.604C498.846 130.604 498.401 130.803 498.055 131.202C497.712 131.601 497.541 132.227 497.541 133.08C497.541 133.652 497.619 134.114 497.775 134.465C497.936 134.812 498.154 135.065 498.432 135.225C498.709 135.381 499.025 135.459 499.381 135.459ZM506.363 126.86V134.608C506.363 134.924 506.458 135.15 506.649 135.284C506.844 135.414 507.095 135.479 507.403 135.479C507.602 135.479 507.791 135.457 507.969 135.414C508.146 135.371 508.32 135.316 508.489 135.251L508.859 136.265C508.655 136.369 508.404 136.46 508.105 136.538C507.81 136.616 507.472 136.655 507.091 136.655C506.402 136.655 505.865 136.463 505.479 136.077C505.098 135.687 504.907 135.154 504.907 134.478V127.932H502.834V126.86H506.363ZM514.373 129.616V135.414H516.238V136.48H510.863V135.414H512.917V130.682H510.928V129.616H514.373ZM513.359 126.255C513.645 126.255 513.874 126.342 514.048 126.515C514.225 126.689 514.314 126.905 514.314 127.165C514.314 127.425 514.225 127.644 514.048 127.822C513.874 128 513.645 128.088 513.359 128.088C513.081 128.088 512.854 128 512.676 127.822C512.498 127.644 512.41 127.425 512.41 127.165C512.41 126.905 512.498 126.689 512.676 126.515C512.854 126.342 513.081 126.255 513.359 126.255ZM519.106 133.516C519.136 133.984 519.236 134.367 519.405 134.666C519.574 134.961 519.795 135.178 520.068 135.316C520.345 135.455 520.649 135.524 520.978 135.524C521.316 135.524 521.628 135.472 521.914 135.368C522.2 135.264 522.488 135.117 522.778 134.926L523.409 135.797C523.088 136.057 522.713 136.265 522.285 136.421C521.855 136.577 521.396 136.655 520.906 136.655C520.196 136.655 519.593 136.504 519.099 136.2C518.61 135.897 518.237 135.475 517.981 134.933C517.726 134.391 517.598 133.765 517.598 133.054C517.598 132.365 517.724 131.75 517.975 131.208C518.226 130.662 518.586 130.231 519.054 129.915C519.522 129.594 520.081 129.434 520.731 129.434C521.342 129.434 521.866 129.573 522.304 129.85C522.746 130.127 523.086 130.522 523.324 131.033C523.567 131.54 523.688 132.151 523.688 132.866C523.688 132.983 523.684 133.1 523.675 133.217C523.671 133.33 523.665 133.429 523.656 133.516H519.106ZM520.744 130.513C520.289 130.513 519.912 130.675 519.613 131C519.318 131.325 519.147 131.832 519.099 132.521H522.278C522.265 131.876 522.126 131.38 521.862 131.033C521.602 130.686 521.229 130.513 520.744 130.513ZM525.172 136.48V129.616H526.426L526.537 130.506C526.823 130.155 527.161 129.889 527.551 129.707C527.941 129.525 528.342 129.434 528.753 129.434C529.395 129.434 529.874 129.614 530.19 129.973C530.511 130.329 530.671 130.829 530.671 131.475V136.48H529.215V132.196C529.215 131.798 529.191 131.477 529.143 131.234C529.096 130.992 529 130.816 528.857 130.708C528.719 130.6 528.511 130.545 528.233 130.545C528.012 130.545 527.802 130.593 527.603 130.688C527.404 130.784 527.222 130.909 527.057 131.065C526.892 131.217 526.749 131.38 526.628 131.553V136.48H525.172ZM538.18 136.116C537.929 136.276 537.627 136.406 537.276 136.506C536.925 136.606 536.559 136.655 536.178 136.655C535.381 136.655 534.774 136.45 534.358 136.038C533.946 135.622 533.74 135.076 533.74 134.4V130.675H532.213V129.616H533.74V128.082L535.196 127.906V129.616H537.51L537.348 130.675H535.196V134.387C535.196 134.755 535.287 135.03 535.469 135.212C535.656 135.39 535.959 135.479 536.379 135.479C536.631 135.479 536.863 135.449 537.075 135.388C537.287 135.327 537.48 135.249 537.653 135.154L538.18 136.116Z" fill="#324B7C"/>
</g>
<defs>
<filter id="filter0_dddd_2_3791" x="238.654" y="20.6079" width="108.692" height="198.738" filterUnits="userSpaceOnUse" color-interpolation-filters="sRGB">
<feFlood flood-opacity="0" result="BackgroundImageFix"/>
<feColorMatrix in="SourceAlpha" type="matrix" values="0 0 0 0 0 0 0 0 0 0 0 0 0 0 0 0 0 0 127 0" result="hardAlpha"/>
<feOffset/>
<feGaussianBlur stdDeviation="0.910247"/>
<feColorMatrix type="matrix" values="0 0 0 0 0.196078 0 0 0 0 0.294118 0 0 0 0 0.486275 0 0 0 0.0310018 0"/>
<feBlend mode="normal" in2="BackgroundImageFix" result="effect1_dropShadow_2_3791"/>
<feColorMatrix in="SourceAlpha" type="matrix" values="0 0 0 0 0 0 0 0 0 0 0 0 0 0 0 0 0 0 127 0" result="hardAlpha"/>
<feOffset/>
<feGaussianBlur stdDeviation="2.30208"/>
<feColorMatrix type="matrix" values="0 0 0 0 0.196078 0 0 0 0 0.294118 0 0 0 0 0.486275 0 0 0 0.0443709 0"/>
<feBlend mode="normal" in2="effect1_dropShadow_2_3791" result="effect2_dropShadow_2_3791"/>
<feColorMatrix in="SourceAlpha" type="matrix" values="0 0 0 0 0 0 0 0 0 0 0 0 0 0 0 0 0 0 127 0" result="hardAlpha"/>
<feOffset/>
<feGaussianBlur stdDeviation="4.69603"/>
<feColorMatrix type="matrix" values="0 0 0 0 0.196078 0 0 0 0 0.294118 0 0 0 0 0.486275 0 0 0 0.0556291 0"/>
<feBlend mode="normal" in2="effect2_dropShadow_2_3791" result="effect3_dropShadow_2_3791"/>
<feColorMatrix in="SourceAlpha" type="matrix" values="0 0 0 0 0 0 0 0 0 0 0 0 0 0 0 0 0 0 127 0" result="hardAlpha"/>
<feOffset dy="10"/>
<feGaussianBlur stdDeviation="9.67294"/>
<feColorMatrix type="matrix" values="0 0 0 0 0.196078 0 0 0 0 0.294118 0 0 0 0 0.486275 0 0 0 0.0689982 0"/>
<feBlend mode="normal" in2="effect3_dropShadow_2_3791" result="effect4_dropShadow_2_3791"/>
<feBlend mode="normal" in="SourceGraphic" in2="effect4_dropShadow_2_3791" result="shape"/>
</filter>
<filter id="filter1_dddd_2_3791" x="10.6541" y="20.6079" width="140.692" height="198.738" filterUnits="userSpaceOnUse" color-interpolation-filters="sRGB">
<feFlood flood-opacity="0" result="BackgroundImageFix"/>
<feColorMatrix in="SourceAlpha" type="matrix" values="0 0 0 0 0 0 0 0 0 0 0 0 0 0 0 0 0 0 127 0" result="hardAlpha"/>
<feOffset/>
<feGaussianBlur stdDeviation="0.910247"/>
<feColorMatrix type="matrix" values="0 0 0 0 0.196078 0 0 0 0 0.294118 0 0 0 0 0.486275 0 0 0 0.0310018 0"/>
<feBlend mode="normal" in2="BackgroundImageFix" result="effect1_dropShadow_2_3791"/>
<feColorMatrix in="SourceAlpha" type="matrix" values="0 0 0 0 0 0 0 0 0 0 0 0 0 0 0 0 0 0 127 0" result="hardAlpha"/>
<feOffset/>
<feGaussianBlur stdDeviation="2.30208"/>
<feColorMatrix type="matrix" values="0 0 0 0 0.196078 0 0 0 0 0.294118 0 0 0 0 0.486275 0 0 0 0.0443709 0"/>
<feBlend mode="normal" in2="effect1_dropShadow_2_3791" result="effect2_dropShadow_2_3791"/>
<feColorMatrix in="SourceAlpha" type="matrix" values="0 0 0 0 0 0 0 0 0 0 0 0 0 0 0 0 0 0 127 0" result="hardAlpha"/>
<feOffset/>
<feGaussianBlur stdDeviation="4.69603"/>
<feColorMatrix type="matrix" values="0 0 0 0 0.196078 0 0 0 0 0.294118 0 0 0 0 0.486275 0 0 0 0.0556291 0"/>
<feBlend mode="normal" in2="effect2_dropShadow_2_3791" result="effect3_dropShadow_2_3791"/>
<feColorMatrix in="SourceAlpha" type="matrix" values="0 0 0 0 0 0 0 0 0 0 0 0 0 0 0 0 0 0 127 0" result="hardAlpha"/>
<feOffset dy="10"/>
<feGaussianBlur stdDeviation="9.67294"/>
<feColorMatrix type="matrix" values="0 0 0 0 0.196078 0 0 0 0 0.294118 0 0 0 0 0.486275 0 0 0 0.0689982 0"/>
<feBlend mode="normal" in2="effect3_dropShadow_2_3791" result="effect4_dropShadow_2_3791"/>
<feBlend mode="normal" in="SourceGraphic" in2="effect4_dropShadow_2_3791" result="shape"/>
</filter>
<filter id="filter2_dddd_2_3791" x="446.654" y="20.6079" width="140.692" height="198.738" filterUnits="userSpaceOnUse" color-interpolation-filters="sRGB">
<feFlood flood-opacity="0" result="BackgroundImageFix"/>
<feColorMatrix in="SourceAlpha" type="matrix" values="0 0 0 0 0 0 0 0 0 0 0 0 0 0 0 0 0 0 127 0" result="hardAlpha"/>
<feOffset/>
<feGaussianBlur stdDeviation="0.910247"/>
<feColorMatrix type="matrix" values="0 0 0 0 0.196078 0 0 0 0 0.294118 0 0 0 0 0.486275 0 0 0 0.0310018 0"/>
<feBlend mode="normal" in2="BackgroundImageFix" result="effect1_dropShadow_2_3791"/>
<feColorMatrix in="SourceAlpha" type="matrix" values="0 0 0 0 0 0 0 0 0 0 0 0 0 0 0 0 0 0 127 0" result="hardAlpha"/>
<feOffset/>
<feGaussianBlur stdDeviation="2.30208"/>
<feColorMatrix type="matrix" values="0 0 0 0 0.196078 0 0 0 0 0.294118 0 0 0 0 0.486275 0 0 0 0.0443709 0"/>
<feBlend mode="normal" in2="effect1_dropShadow_2_3791" result="effect2_dropShadow_2_3791"/>
<feColorMatrix in="SourceAlpha" type="matrix" values="0 0 0 0 0 0 0 0 0 0 0 0 0 0 0 0 0 0 127 0" result="hardAlpha"/>
<feOffset/>
<feGaussianBlur stdDeviation="4.69603"/>
<feColorMatrix type="matrix" values="0 0 0 0 0.196078 0 0 0 0 0.294118 0 0 0 0 0.486275 0 0 0 0.0556291 0"/>
<feBlend mode="normal" in2="effect2_dropShadow_2_3791" result="effect3_dropShadow_2_3791"/>
<feColorMatrix in="SourceAlpha" type="matrix" values="0 0 0 0 0 0 0 0 0 0 0 0 0 0 0 0 0 0 127 0" result="hardAlpha"/>
<feOffset dy="10"/>
<feGaussianBlur stdDeviation="9.67294"/>
<feColorMatrix type="matrix" values="0 0 0 0 0.196078 0 0 0 0 0.294118 0 0 0 0 0.486275 0 0 0 0.0689982 0"/>
<feBlend mode="normal" in2="effect3_dropShadow_2_3791" result="effect4_dropShadow_2_3791"/>
<feBlend mode="normal" in="SourceGraphic" in2="effect4_dropShadow_2_3791" result="shape"/>
</filter>
<clipPath id="clip0_2_3791">
<rect width="16" height="16" fill="white" transform="translate(169 143.06)"/>
</clipPath>
<clipPath id="clip1_2_3791">
<rect width="17" height="16" fill="white" transform="translate(370 143.06)"/>
</clipPath>
<clipPath id="clip2_2_3791">
<rect x="258" y="30" width="70" height="160" rx="6" fill="white"/>
</clipPath>
<clipPath id="clip3_2_3791">
<rect width="49" height="13" fill="white" transform="translate(56.5 97.5)"/>
</clipPath>
</defs>
</svg>
